<svg width="1440" height="200" viewBox="0 0 1440 200" fill="none" xmlns="http://www.w3.org/2000/svg">
<g clip-path="url(#clip0_3894_17363)">
<path d="M5.11507 -6.89917L5.11509 201.069C274.384 -85.8728 1323.32 353.753 1480.03 92.4847L1436.85 -6.89915L5.11507 -6.89917Z" fill="white"/>
<path opacity="0.7" d="M4.0388 199.011C71.7881 126.815 188.371 100.493 327.078 97.2734C465.861 94.0518 627.231 113.957 784.952 134.645C942.738 155.341 1096.85 176.815 1221.31 176.805C1283.54 176.801 1338.26 171.424 1382.26 157.94C1426.27 144.459 1459.43 122.918 1478.76 90.6794L1481.3 92.2899C1461.46 125.369 1427.56 147.242 1383.15 160.847C1338.75 174.451 1283.7 179.834 1221.35 179.839C1096.65 179.848 942.309 158.338 784.613 137.653C626.853 116.961 465.706 97.0906 327.184 100.306C188.587 103.523 73.0768 129.851 6.19153 201.126L4.0388 199.011Z" fill="url(#paint0_linear_3894_17363)"/>
<path opacity="0.65" d="M3.9318 199.138C63.2642 119.616 172.773 85.8727 306.298 76.4894C439.89 67.1016 597.96 82.0728 754.901 100.415C911.906 118.764 1067.76 140.483 1197.12 144.66C1261.8 146.748 1319.78 144.448 1367.91 135.173C1416.06 125.894 1454.21 109.666 1479.38 84.0337L1481.49 86.1974C1455.72 112.432 1416.92 128.824 1368.5 138.154C1320.06 147.487 1261.84 149.783 1197.07 147.692C1067.54 143.51 911.493 121.765 754.602 103.429C597.649 85.0851 439.828 70.1493 306.54 79.5159C173.184 88.8871 64.8214 122.56 6.29841 200.998L3.9318 199.138Z" fill="url(#paint1_linear_3894_17363)"/>
<path opacity="0.25" d="M3.8778 199.215C59.5293 113.93 164.74 72.5796 294.506 56.219C424.319 39.8526 579.082 48.4478 734.313 63.4173C889.632 78.3952 1045.32 99.7399 1177.32 108.949C1243.3 113.552 1303.29 115.115 1354.25 111.337C1405.24 107.557 1447.05 98.439 1476.8 81.7831L1478.25 84.4482C1447.95 101.412 1405.64 110.572 1354.5 114.363C1303.34 118.156 1243.2 116.583 1177.16 111.976C1045.13 102.765 889.191 81.3959 734.073 66.4374C578.866 51.4703 424.378 42.9064 294.907 59.2298C165.388 75.5592 61.278 116.748 6.35155 200.922L3.8778 199.215Z" fill="url(#paint2_linear_3894_17363)"/>
<path opacity="0.1" d="M3.70421 199.584C31.2544 112.849 125.601 66.373 253.619 43.9457C381.771 21.495 544.339 23.0203 709.426 32.9047C874.504 42.7886 1042.3 61.0476 1180.78 72.0973C1250.05 77.6241 1311.99 81.3485 1362.64 81.3319C1413.36 81.3153 1452.56 77.544 1476.49 68.2003L1477.58 71.0361C1453.1 80.5968 1413.4 84.3488 1362.68 84.3654C1311.91 84.3821 1249.87 80.6498 1180.59 75.1216C1041.98 64.0611 874.35 45.8158 709.291 35.933C544.24 26.0508 381.957 24.5468 254.157 46.9359C126.223 69.3483 33.5169 115.581 6.52635 200.555L3.70421 199.584Z" fill="url(#paint3_linear_3894_17363)"/>
</g>
<defs>
<linearGradient id="paint0_linear_3894_17363" x1="946.577" y1="-225.87" x2="513.322" y2="502.404" gradientUnits="userSpaceOnUse">
<stop stop-color="#F4DDD5"/>
<stop offset="1" stop-color="#C48F7F"/>
</linearGradient>
<linearGradient id="paint1_linear_3894_17363" x1="948.174" y1="-231.529" x2="512.015" y2="501.627" gradientUnits="userSpaceOnUse">
<stop stop-color="#F4DDD5"/>
<stop offset="1" stop-color="#C48F7F"/>
</linearGradient>
<linearGradient id="paint2_linear_3894_17363" x1="946.784" y1="-232.624" x2="510.507" y2="500.73" gradientUnits="userSpaceOnUse">
<stop stop-color="#F4DDD5"/>
<stop offset="1" stop-color="#C48F7F"/>
</linearGradient>
<linearGradient id="paint3_linear_3894_17363" x1="947.92" y1="-245.158" x2="505.839" y2="497.953" gradientUnits="userSpaceOnUse">
<stop stop-color="#F4DDD5"/>
<stop offset="1" stop-color="#C48F7F"/>
</linearGradient>
<clipPath id="clip0_3894_17363">
<rect width="1440" height="200" fill="white" transform="matrix(-1 0 0 -1 1440 200)"/>
</clipPath>
</defs>
</svg>
