<svg width="1440" height="200" viewBox="0 0 1440 200" fill="none" xmlns="http://www.w3.org/2000/svg">
<g clip-path="url(#clip0_3894_17373)">
<path d="M1434.88 206.899L1434.88 -1.06864C1165.62 285.873 116.679 -153.753 -40.0306 107.515L3.14966 206.899L1434.88 206.899Z" fill="white"/>
<path opacity="0.7" d="M1435.96 0.98906C1368.21 73.1848 1251.63 99.5068 1112.92 102.727C974.139 105.948 812.769 86.0429 655.048 65.3553C497.262 44.6594 343.154 23.1852 218.69 23.1945C156.463 23.1992 101.744 28.5764 57.7357 42.0596C13.7332 55.5411 -19.427 77.0825 -38.7636 109.321L-41.2975 107.71C-21.4566 74.6312 12.4427 52.7585 56.8509 39.1528C101.253 25.5488 156.297 20.1657 218.652 20.161C343.353 20.1516 497.691 41.6623 655.387 62.3465C813.147 83.0391 974.294 102.909 1112.82 99.6939C1251.41 96.4766 1366.92 70.1488 1433.81 -1.12616L1435.96 0.98906Z" fill="url(#paint0_linear_3894_17373)"/>
<path opacity="0.65" d="M1436.07 0.861515C1376.74 80.3844 1267.23 114.127 1133.7 123.511C1000.11 132.898 842.04 117.927 685.099 99.5852C528.094 81.2358 372.244 59.517 242.876 55.3401C178.2 53.2519 120.222 55.5525 72.0881 64.8275C23.9364 74.1059 -14.2053 90.3339 -39.381 115.966L-41.4873 113.803C-15.7201 87.5681 23.0831 71.1762 71.5025 61.8462C119.939 52.5128 178.159 50.2168 242.931 52.3081C372.46 56.4902 528.507 78.2352 685.398 96.5713C842.351 114.915 1000.17 129.851 1133.46 120.484C1266.82 111.113 1375.18 77.4397 1433.7 -0.998353L1436.07 0.861515Z" fill="url(#paint1_linear_3894_17373)"/>
<path opacity="0.25" d="M1436.12 0.784776C1380.47 86.07 1275.26 127.42 1145.49 143.781C1015.68 160.147 860.918 151.552 705.687 136.583C550.368 121.605 394.685 100.26 262.676 91.0507C196.695 86.4477 136.714 84.8845 85.7518 88.6625C34.7625 92.4426 -7.05293 101.561 -36.7979 118.217L-38.2482 115.552C-7.95344 98.5879 34.3626 89.4279 85.4993 85.637C136.663 81.844 196.802 83.4173 262.84 88.0243C394.866 97.2349 550.809 118.604 705.927 133.563C861.134 148.53 1015.62 157.094 1145.09 140.77C1274.61 124.441 1378.72 83.2524 1433.65 -0.921654L1436.12 0.784776Z" fill="url(#paint2_linear_3894_17373)"/>
<path opacity="0.1" d="M1436.3 0.415982C1408.75 87.1514 1314.4 133.627 1186.38 156.054C1058.23 178.505 895.661 176.98 730.574 167.095C565.496 157.211 397.697 138.952 259.216 127.903C189.95 122.376 128.014 118.651 77.357 118.668C26.6404 118.685 -12.5634 122.456 -36.4936 131.8L-37.5828 128.964C-13.0969 119.403 26.6001 115.651 77.3176 115.635C128.095 115.618 190.126 119.35 259.408 124.878C398.025 135.939 565.65 154.184 730.709 164.067C895.76 173.949 1058.04 175.453 1185.84 153.064C1313.78 130.652 1406.48 84.4186 1433.47 -0.554966L1436.3 0.415982Z" fill="url(#paint3_linear_3894_17373)"/>
</g>
<defs>
<linearGradient id="paint0_linear_3894_17373" x1="493.423" y1="425.87" x2="926.678" y2="-302.404" gradientUnits="userSpaceOnUse">
<stop stop-color="#F4DDD5"/>
<stop offset="1" stop-color="#C48F7F"/>
</linearGradient>
<linearGradient id="paint1_linear_3894_17373" x1="491.826" y1="431.529" x2="927.985" y2="-301.627" gradientUnits="userSpaceOnUse">
<stop stop-color="#F4DDD5"/>
<stop offset="1" stop-color="#C48F7F"/>
</linearGradient>
<linearGradient id="paint2_linear_3894_17373" x1="493.216" y1="432.624" x2="929.493" y2="-300.73" gradientUnits="userSpaceOnUse">
<stop stop-color="#F4DDD5"/>
<stop offset="1" stop-color="#C48F7F"/>
</linearGradient>
<linearGradient id="paint3_linear_3894_17373" x1="492.08" y1="445.158" x2="934.161" y2="-297.953" gradientUnits="userSpaceOnUse">
<stop stop-color="#F4DDD5"/>
<stop offset="1" stop-color="#C48F7F"/>
</linearGradient>
<clipPath id="clip0_3894_17373">
<rect width="1440" height="200" fill="white"/>
</clipPath>
</defs>
</svg>
