<svg width="120" height="120" viewBox="0 0 120 120" fill="none" xmlns="http://www.w3.org/2000/svg">
<g clip-path="url(#clip0_3894_17372)">
<path d="M81.1866 114.751C74.3178 117.523 66.9036 118.973 59.2645 118.973C43.7097 118.973 29.0881 112.959 18.0909 102.039C7.09106 91.1188 1.03406 76.5972 1.03406 61.1541C1.03406 45.7109 7.09106 31.1894 18.0909 20.2693C23.923 14.4756 30.7736 10.0654 38.2421 7.19809L37.8621 6.24316C30.2643 9.15929 23.2948 13.649 17.3593 19.5428C6.16558 30.658 0 45.4337 0 61.1541C0 76.8744 6.16558 91.6501 17.3593 102.765C28.553 113.88 43.4331 120 59.2645 120C67.0381 120 74.5815 118.524 81.5692 115.708L81.1866 114.751Z" fill="#16203C"/>
<path d="M44.3817 6.8948L44.3636 6.82549C44.3765 6.82292 44.4101 6.80752 44.4618 6.78442C44.5135 6.76132 44.5652 6.73051 44.6169 6.69201C44.6686 6.6535 44.71 6.6073 44.7436 6.55339C44.7772 6.49948 44.7849 6.44044 44.7668 6.37626C44.7565 6.33519 44.7255 6.27102 44.6738 6.18117C44.6221 6.09389 44.5549 5.98865 44.4721 5.86286C44.3894 5.73965 44.2938 5.60103 44.1904 5.45214C44.0844 5.30325 43.9732 5.14667 43.8543 4.98495L41.9982 5.47781C41.9749 5.6729 41.9542 5.85773 41.9309 6.03485C41.9077 6.21198 41.887 6.3891 41.8663 6.56879C41.8353 6.84346 41.8353 7.03342 41.8611 7.13353C41.8766 7.19257 41.9103 7.23878 41.9568 7.26702C42.0033 7.29525 42.0602 7.31579 42.1248 7.32606C42.1895 7.33633 42.2567 7.33889 42.3291 7.33119C42.3989 7.32606 42.4661 7.31836 42.5281 7.31066L42.5462 7.37997L41.0597 7.77529L41.0391 7.69827C41.1554 7.65207 41.251 7.59303 41.3234 7.51858C41.3958 7.44414 41.4372 7.39793 41.4449 7.37483C41.4682 7.33376 41.5018 7.24391 41.5432 7.10273C41.5845 6.96411 41.6285 6.76132 41.6724 6.49691C41.7112 6.25305 41.7551 5.97838 41.7991 5.66777C41.8456 5.35973 41.8922 5.04142 41.9413 4.71284C41.9904 4.38683 42.0369 4.05569 42.0809 3.72454C42.1248 3.3934 42.1688 3.08279 42.2101 2.79529L42.099 2.6618C42.1739 2.60276 42.236 2.53859 42.2903 2.46928C42.3446 2.39997 42.3885 2.33066 42.4247 2.26392C42.4609 2.19461 42.4893 2.13043 42.51 2.07139C42.5307 2.01235 42.5462 1.96358 42.5565 1.92507L42.6134 1.90967C42.8616 2.25365 43.0968 2.58222 43.3192 2.89027C43.5415 3.20087 43.7561 3.49865 43.9603 3.78358C44.1645 4.07109 44.3636 4.34833 44.5549 4.6153C44.7462 4.88226 44.9375 5.14923 45.1288 5.4085C45.2192 5.53685 45.2994 5.64467 45.3666 5.72681C45.4364 5.80896 45.5165 5.90393 45.6044 6.00918C45.6199 6.02458 45.6484 6.05282 45.6923 6.08876C45.7363 6.12726 45.7931 6.1632 45.8604 6.19657C45.9276 6.22994 46.0051 6.25562 46.093 6.27102C46.1809 6.28642 46.2817 6.28385 46.3877 6.25818L46.411 6.34033L44.3739 6.88197L44.3817 6.8948ZM42.3368 2.94161C42.3239 3.00835 42.311 3.1136 42.2903 3.25735C42.2722 3.4011 42.2463 3.57566 42.2179 3.78102C42.1895 3.98638 42.1584 4.21998 42.1248 4.47668C42.0938 4.73595 42.0576 5.01575 42.0188 5.31866L43.7561 4.85659C43.6216 4.6692 43.4846 4.48438 43.3476 4.29699C43.2106 4.1096 43.0762 3.93247 42.9495 3.76048C42.8202 3.58849 42.7039 3.4319 42.5979 3.29072C42.4919 3.14953 42.404 3.03145 42.3368 2.94161Z" fill="#16203C"/>
<path d="M52.1942 4.66926C52.127 4.86178 52.0184 5.03377 51.871 5.18266C51.7237 5.33155 51.5401 5.45476 51.3204 5.54718C51.1007 5.63959 50.8551 5.70376 50.581 5.74227C50.3484 5.77307 50.1442 5.78848 49.9735 5.78077C49.8029 5.77564 49.6607 5.76024 49.5444 5.73457C49.4281 5.7089 49.3428 5.68323 49.2833 5.65756C49.2238 5.63189 49.1877 5.61905 49.1721 5.62162C49.1566 5.62162 49.1308 5.65499 49.092 5.71917C49.0532 5.78334 49.017 5.84238 48.986 5.89886L48.9214 5.90656L48.7042 4.49727L48.7766 4.487C48.8361 4.61022 48.9085 4.72573 48.9938 4.83611C49.0791 4.9465 49.167 5.05174 49.26 5.14672C49.3531 5.2417 49.4487 5.32385 49.5496 5.39316C49.6478 5.46246 49.7409 5.51124 49.8288 5.54204C49.9167 5.57285 50.0278 5.60108 50.1674 5.62675C50.307 5.64986 50.4389 5.65499 50.5629 5.63702C50.9145 5.58825 51.1886 5.45476 51.3824 5.23143C51.5763 5.01067 51.6487 4.736 51.6048 4.40999C51.5867 4.27651 51.5479 4.16356 51.491 4.07115C51.4341 3.97873 51.3643 3.89916 51.279 3.83498C51.1937 3.77081 51.0981 3.72203 50.9921 3.68353C50.8835 3.64502 50.7698 3.61165 50.6508 3.58598C50.5293 3.55774 50.4259 3.53721 50.3355 3.51924C50.245 3.50384 50.1623 3.48587 50.0847 3.47047C50.0071 3.45506 49.927 3.43966 49.8443 3.42426C49.7616 3.40886 49.6633 3.38832 49.547 3.36008C49.4177 3.32928 49.2885 3.28051 49.1618 3.21376C49.0351 3.14702 48.9214 3.06231 48.8206 2.96476C48.7197 2.86465 48.6344 2.7517 48.562 2.62335C48.4897 2.495 48.4457 2.35638 48.425 2.20493C48.3888 1.94823 48.4069 1.72233 48.4741 1.52467C48.5414 1.32701 48.6474 1.15502 48.7895 1.01127C48.9317 0.867517 49.1023 0.749435 49.3014 0.662157C49.5005 0.574878 49.715 0.515837 49.9425 0.485033C50.1571 0.456796 50.3432 0.449095 50.5009 0.46193C50.6586 0.477332 50.7879 0.497868 50.8913 0.528672C50.9947 0.559476 51.0748 0.587713 51.1291 0.61595C51.1834 0.644188 51.2144 0.65959 51.2196 0.657023C51.2325 0.657023 51.2609 0.623651 51.2971 0.559476C51.3333 0.495301 51.3695 0.433693 51.398 0.372084L51.4755 0.361816L51.6565 1.67613L51.5789 1.68639C51.5014 1.53751 51.4057 1.39375 51.292 1.25257C51.1808 1.11138 51.0567 0.988167 50.9197 0.882919C50.7827 0.777672 50.6353 0.698095 50.4725 0.644187C50.3096 0.59028 50.1338 0.574878 49.9477 0.600548C49.8003 0.621084 49.6633 0.662157 49.5392 0.721198C49.4126 0.782806 49.3091 0.862383 49.2213 0.95993C49.1359 1.05748 49.0739 1.17556 49.0351 1.30648C48.9963 1.43996 48.9912 1.58628 49.0119 1.748C49.0455 1.99957 49.1515 2.18953 49.3247 2.32044C49.4979 2.45136 49.7124 2.54634 49.9684 2.60282C50.0692 2.62849 50.1623 2.64902 50.2501 2.66699C50.338 2.68496 50.4234 2.70036 50.5087 2.71576C50.594 2.73117 50.6793 2.74657 50.7672 2.76454C50.8551 2.78251 50.9455 2.80048 51.0412 2.82101C51.3799 2.89545 51.6565 3.03151 51.8659 3.2343C52.0753 3.43453 52.2045 3.70406 52.251 4.04034C52.2821 4.26881 52.264 4.47673 52.1968 4.66926H52.1942Z" fill="#16203C"/>
<path d="M55.4308 5.229V5.15712C55.5471 5.13402 55.6583 5.10065 55.7617 5.05444C55.8625 5.00824 55.9504 4.94406 56.0202 4.85935C56.0434 4.83111 56.0589 4.79004 56.0693 4.73613C56.0796 4.68223 56.0874 4.62062 56.0926 4.54874C56.0977 4.47686 56.1003 4.40242 56.1003 4.32284C56.1003 4.24327 56.1003 4.16626 56.0951 4.08925C56.0951 4.0225 56.0926 3.93266 56.09 3.81714C56.09 3.70163 56.0874 3.57584 56.0848 3.43979C56.0848 3.30374 56.0796 3.16256 56.0745 3.02137C56.0693 2.87248 56.0641 2.73387 56.0615 2.60551L56.0176 1.20906L56.0098 0.952361C56.0072 0.867649 56.0021 0.785505 55.9917 0.713629C55.9814 0.639185 55.9685 0.572443 55.953 0.513402C55.9374 0.454361 55.9142 0.408155 55.8832 0.374783C55.8134 0.295206 55.728 0.238732 55.6272 0.207928C55.5264 0.177124 55.4152 0.154021 55.2886 0.143753V0.0693093L57.4446 0V0.0718763C57.3464 0.0898453 57.2378 0.118082 57.124 0.161722C57.0103 0.202794 56.9224 0.282371 56.8655 0.400453C56.8242 0.482598 56.8061 0.585278 56.8061 0.711062C56.8061 0.834278 56.8061 0.952361 56.8061 1.06274C56.8086 1.18339 56.8112 1.30147 56.8138 1.41699C56.8138 1.53507 56.8164 1.65315 56.8216 1.77124C56.8267 1.89189 56.8293 2.0151 56.8345 2.14345C56.8397 2.26667 56.8422 2.40272 56.8474 2.55161L56.8991 4.17139C56.9043 4.31001 56.9095 4.44349 56.9198 4.57184C56.9276 4.70019 56.9534 4.79004 56.9948 4.84138C57.0542 4.92096 57.1473 4.98 57.274 5.0185C57.4006 5.05701 57.5144 5.08011 57.6152 5.08781V5.15969L55.4308 5.229Z" fill="#16203C"/>
<path d="M63.5013 5.38812L63.5065 5.31625C63.522 5.31625 63.5556 5.31625 63.6125 5.31111C63.6693 5.30598 63.7262 5.29314 63.7882 5.27517C63.8503 5.25721 63.9046 5.2264 63.9537 5.1879C64.0028 5.14939 64.0287 5.09548 64.0338 5.02874C64.0364 4.9851 64.0287 4.91579 64.0106 4.81568C63.9925 4.71557 63.964 4.59492 63.9278 4.4486C63.8917 4.30228 63.8477 4.14312 63.7986 3.96857C63.7495 3.79144 63.6978 3.60919 63.6383 3.41666L61.7227 3.26777C61.6374 3.44233 61.5521 3.61175 61.472 3.77091C61.3918 3.93006 61.3117 4.08922 61.2315 4.25094C61.11 4.49994 61.0454 4.67706 61.0376 4.78231C61.0325 4.84392 61.048 4.89782 61.0842 4.94146C61.1204 4.9851 61.1669 5.02104 61.2238 5.05185C61.2807 5.08265 61.3453 5.10575 61.4125 5.12372C61.4797 5.14169 61.5469 5.15709 61.609 5.17249L61.6038 5.24437L60.0708 5.12372L60.076 5.04414C60.2026 5.03901 60.3112 5.01591 60.4043 4.9697C60.4974 4.92349 60.5516 4.89269 60.5671 4.87472C60.6033 4.84392 60.6654 4.76947 60.7507 4.65139C60.836 4.53331 60.9446 4.35619 61.0738 4.12259C61.1928 3.90696 61.3246 3.66053 61.472 3.38329C61.6193 3.10605 61.7718 2.82368 61.9269 2.53104C62.082 2.2384 62.2372 1.9432 62.3923 1.64799C62.5448 1.35022 62.6921 1.07298 62.8266 0.816279L62.7671 0.654558C62.8576 0.623753 62.9377 0.585248 63.0127 0.536475C63.0877 0.490269 63.1523 0.438929 63.2092 0.387589C63.266 0.336248 63.3152 0.282341 63.3565 0.233568C63.3979 0.184795 63.4263 0.143723 63.4496 0.110352L63.5065 0.115486C63.6228 0.52364 63.7365 0.908692 63.8425 1.27321C63.9485 1.63772 64.0493 1.9894 64.1476 2.32825C64.2458 2.66709 64.3363 2.9931 64.4294 3.30885C64.5224 3.62459 64.6103 3.93776 64.7034 4.2458C64.7448 4.39726 64.7835 4.52304 64.8223 4.62572C64.8611 4.72583 64.9024 4.84135 64.9516 4.9697C64.9593 4.99024 64.9774 5.02361 65.0084 5.07495C65.0395 5.12629 65.0782 5.17763 65.1299 5.23154C65.1816 5.28544 65.2463 5.33422 65.3238 5.38042C65.4014 5.42406 65.497 5.45487 65.6056 5.4677L65.5979 5.55241L63.4961 5.38812H63.5013ZM62.9015 0.983135C62.8679 1.04218 62.8188 1.13716 62.7516 1.26551C62.687 1.39386 62.6042 1.55044 62.5086 1.73527C62.4129 1.92009 62.3044 2.12802 62.188 2.36162C62.0717 2.59522 61.9425 2.84678 61.8054 3.11889L63.5969 3.25751C63.5323 3.03674 63.4677 2.81598 63.4005 2.59522C63.3333 2.37445 63.2686 2.16139 63.204 1.9586C63.1394 1.7558 63.0825 1.56841 63.0308 1.39899C62.9791 1.22957 62.9351 1.09095 62.9015 0.983135Z" fill="#16203C"/>
<path d="M74.5375 7.49567L74.5582 7.42636C74.5711 7.43149 74.6073 7.43406 74.6616 7.44176C74.7185 7.4469 74.7779 7.4469 74.8426 7.44176C74.9072 7.43406 74.9666 7.41866 75.0235 7.38785C75.0804 7.35962 75.1166 7.31341 75.1347 7.24924C75.1476 7.20816 75.1528 7.13629 75.1554 7.03617C75.1554 6.93349 75.1554 6.81028 75.1476 6.66139C75.1398 6.5125 75.1295 6.34822 75.1166 6.16339C75.1037 5.98113 75.0881 5.79117 75.0701 5.59095L73.2243 5.06728C73.1053 5.2213 72.989 5.37018 72.8804 5.5088C72.7693 5.64999 72.6581 5.79117 72.5469 5.93236C72.3789 6.15312 72.2807 6.31484 72.2497 6.41496C72.2316 6.474 72.2367 6.53047 72.2626 6.57925C72.2884 6.62802 72.3272 6.67423 72.3763 6.7153C72.428 6.75637 72.4849 6.79231 72.5469 6.82311C72.6116 6.85392 72.671 6.88215 72.7279 6.90782L72.7072 6.97713L71.2285 6.55614L71.2492 6.47913C71.3733 6.49967 71.4844 6.4971 71.5853 6.47143C71.6861 6.44576 71.7455 6.42523 71.7636 6.40982C71.805 6.38672 71.88 6.32511 71.9886 6.22757C72.0971 6.13002 72.2393 5.97857 72.4125 5.77321C72.5728 5.58581 72.7512 5.37018 72.9502 5.12889C73.1493 4.88759 73.3561 4.63859 73.5655 4.38189C73.7775 4.12519 73.9869 3.86848 74.1988 3.60665C74.4108 3.34481 74.6073 3.10352 74.7909 2.87762L74.765 2.70563C74.8581 2.69279 74.946 2.66969 75.0287 2.63889C75.1114 2.60808 75.1838 2.57214 75.251 2.53107C75.3182 2.49 75.3751 2.44893 75.4242 2.40786C75.4733 2.36678 75.5121 2.33341 75.5405 2.30518L75.5948 2.32058C75.6284 2.74157 75.6595 3.14459 75.6931 3.52194C75.7241 3.90186 75.7525 4.26637 75.7784 4.61548C75.8042 4.96716 75.8327 5.30601 75.8559 5.63202C75.8818 5.9606 75.9076 6.28404 75.9361 6.60492C75.9464 6.7615 75.9593 6.89242 75.9749 7.00024C75.9929 7.10805 76.011 7.2287 76.0317 7.36218C76.0343 7.38272 76.0472 7.42123 76.0653 7.4777C76.0834 7.53161 76.1144 7.59321 76.1532 7.65482C76.192 7.719 76.2463 7.78061 76.3135 7.83965C76.3807 7.89869 76.4686 7.9449 76.572 7.98083L76.5487 8.06298L74.522 7.48797L74.5375 7.49567ZM74.8296 3.05988C74.7857 3.11122 74.7159 3.19336 74.6254 3.30888C74.5349 3.42183 74.4238 3.56044 74.2919 3.72217C74.1601 3.88389 74.0127 4.06614 73.8524 4.2715C73.6896 4.47687 73.5164 4.7002 73.3251 4.93893L75.0545 5.42923C75.0364 5.20076 75.0158 4.96973 74.9925 4.74127C74.9718 4.51024 74.9485 4.28947 74.9279 4.07898C74.9072 3.86592 74.8865 3.67339 74.871 3.49627C74.8555 3.31914 74.84 3.17539 74.827 3.06244L74.8296 3.05988Z" fill="#16203C"/>
<path d="M87.0157 7.09247C86.9175 7.1053 86.858 7.11814 86.8373 7.1284C86.8192 7.13611 86.7882 7.14894 86.7494 7.16691C86.7081 7.18488 86.6589 7.21312 86.5995 7.25162C86.54 7.29013 86.4702 7.34147 86.3927 7.41078C86.3151 7.47752 86.2246 7.5648 86.1212 7.67004C85.9532 7.8523 85.7645 8.04996 85.5525 8.26816C85.3405 8.48635 85.126 8.70968 84.9062 8.94071C84.6865 9.17174 84.4642 9.40278 84.2418 9.63637C84.0195 9.86997 83.8075 10.0907 83.6111 10.3012L83.0475 10.8018L82.9829 10.771C83.0087 10.4039 83.0346 10.0548 83.0656 9.72108C83.094 9.38737 83.1225 9.0665 83.1509 8.75846C83.1793 8.45041 83.2052 8.15264 83.2336 7.86257C83.2621 7.5725 83.2853 7.28499 83.3034 7.00005C83.1406 7.16948 82.9699 7.34403 82.7916 7.52886C82.6106 7.71368 82.4296 7.90107 82.2487 8.09103C82.0651 8.28099 81.8842 8.46838 81.7058 8.65321C81.5248 8.83803 81.3516 9.01516 81.1836 9.18458L80.6019 9.69285L80.5244 9.65691C80.5502 9.24362 80.5761 8.85087 80.6019 8.47865C80.6278 8.10643 80.6511 7.74962 80.6743 7.40564C80.6976 7.06166 80.7209 6.72795 80.7415 6.40451C80.7622 6.08106 80.7855 5.75762 80.8062 5.43675C80.8139 5.3392 80.8191 5.25705 80.8243 5.18518C80.8268 5.1133 80.832 5.04656 80.8372 4.98495C80.8424 4.92334 80.8424 4.8643 80.8449 4.80783C80.8449 4.75135 80.8449 4.68975 80.8424 4.62557C80.8424 4.59477 80.8372 4.55369 80.832 4.50235C80.8268 4.45101 80.8088 4.39967 80.7829 4.3432C80.757 4.28672 80.7183 4.23025 80.6692 4.17378C80.62 4.1173 80.5502 4.06596 80.4546 4.01719L80.4882 3.94531L82.3392 4.78472L82.3081 4.8489C82.2875 4.83863 82.2461 4.8258 82.1892 4.81039C82.1323 4.79499 82.0703 4.78472 82.0031 4.78216C81.9359 4.77702 81.8712 4.78729 81.8092 4.81296C81.7472 4.83863 81.7006 4.88741 81.667 4.96185C81.6489 5.00035 81.6308 5.10047 81.6127 5.26476C81.5946 5.42648 81.574 5.6267 81.5559 5.86287C81.5378 6.09903 81.5171 6.35573 81.499 6.63554C81.4783 6.91534 81.4602 7.19258 81.4421 7.46468C81.424 7.73679 81.4085 7.99349 81.3956 8.23222C81.3827 8.47095 81.3671 8.66604 81.3568 8.8175C81.3852 8.78926 81.4602 8.71225 81.5791 8.5916C81.698 8.47095 81.848 8.31693 82.0289 8.13211C82.2073 7.94728 82.409 7.73935 82.6339 7.50832C82.8588 7.27729 83.0863 7.03086 83.3189 6.77416C83.3344 6.57136 83.3448 6.39167 83.3525 6.23509C83.3603 6.0785 83.3629 5.92448 83.3603 5.77046C83.3603 5.72682 83.3525 5.68061 83.3422 5.62927C83.3319 5.57793 83.3086 5.52146 83.2776 5.46242C83.244 5.40337 83.1948 5.34433 83.1328 5.28529C83.0682 5.22882 82.9854 5.17234 82.882 5.121L82.9156 5.04913L84.9708 5.98095L84.9398 6.04513C84.9114 6.03743 84.8623 6.02202 84.7899 6.00149C84.7175 5.97838 84.6425 5.96555 84.5624 5.95785C84.4822 5.95015 84.4073 5.95785 84.3323 5.97582C84.2573 5.99379 84.2056 6.03743 84.1746 6.1016C84.1617 6.12727 84.1462 6.22738 84.1255 6.39937C84.1048 6.57136 84.0816 6.78186 84.0583 7.03086C84.0324 7.27986 84.0092 7.55196 83.9859 7.8446C83.9626 8.13724 83.9394 8.41961 83.9135 8.69171C83.8903 8.96125 83.8696 9.20512 83.8515 9.42074C83.8334 9.63637 83.823 9.79296 83.8153 9.88794C83.8437 9.86227 83.8954 9.81093 83.973 9.72622C84.0505 9.64151 84.1462 9.54139 84.2625 9.42331C84.3788 9.30523 84.5055 9.17174 84.6451 9.02542C84.7847 8.87911 84.9243 8.72765 85.0665 8.57363C85.2087 8.41961 85.3509 8.26559 85.493 8.11157C85.6352 7.95755 85.7671 7.8138 85.886 7.68031C86.0385 7.50832 86.1419 7.3774 86.191 7.29013C86.2427 7.20285 86.2763 7.13867 86.297 7.09503C86.328 7.03086 86.3306 6.96668 86.3125 6.90764C86.2919 6.8486 86.2608 6.79213 86.2169 6.73822C86.1729 6.68431 86.1212 6.63554 86.0644 6.58933C86.0049 6.54313 85.9506 6.50719 85.9015 6.47895L85.9325 6.41478L87.3776 7.06936L87.3466 7.13354C87.2303 7.0976 87.1243 7.08477 87.026 7.0976L87.0157 7.09247Z" fill="#16203C"/>
<path d="M89.6631 14.5677L89.7019 14.5087C89.7019 14.5087 89.7458 14.5318 89.7975 14.5523C89.8492 14.5754 89.9061 14.5908 89.9707 14.6036C90.0354 14.6165 90.0974 14.6165 90.1595 14.6036C90.2215 14.5934 90.2706 14.56 90.3068 14.5035C90.3301 14.4676 90.3585 14.4008 90.3895 14.3059C90.4206 14.2083 90.4542 14.0902 90.4929 13.9439C90.5291 13.8002 90.5705 13.6384 90.6119 13.4613C90.6532 13.2842 90.6972 13.0968 90.7385 12.9017L89.1306 11.8595C88.9703 11.9725 88.8178 12.0803 88.6704 12.1804C88.5231 12.2831 88.3757 12.3857 88.2284 12.4884C88.0009 12.6501 87.8587 12.7759 87.8018 12.8632C87.7682 12.9145 87.7553 12.9685 87.7656 13.0224C87.776 13.0763 87.7992 13.1327 87.8354 13.1867C87.8716 13.2406 87.9156 13.2919 87.9673 13.3407C88.019 13.3894 88.0681 13.4331 88.1172 13.4742L88.0784 13.5332L86.791 12.6989L86.835 12.6322C86.9487 12.6887 87.0547 12.7169 87.1581 12.722C87.2615 12.7272 87.3236 12.722 87.3468 12.7169C87.3934 12.7066 87.4838 12.6707 87.6157 12.6091C87.7475 12.5475 87.9285 12.4422 88.156 12.2985C88.3628 12.165 88.598 12.011 88.8617 11.839C89.1254 11.667 89.3943 11.4899 89.6709 11.3076C89.9475 11.1253 90.2267 10.9405 90.5059 10.7531C90.7851 10.5657 91.0462 10.3912 91.2892 10.2295L91.315 10.0575C91.4081 10.0729 91.4986 10.078 91.5865 10.0703C91.6744 10.0652 91.7545 10.0523 91.8321 10.0318C91.907 10.0113 91.9742 9.99072 92.0337 9.96505C92.0932 9.93938 92.1397 9.91885 92.1733 9.90088L92.2224 9.93168C92.1293 10.345 92.0415 10.7377 91.9587 11.1074C91.876 11.4796 91.7959 11.8364 91.7157 12.1778C91.6382 12.5218 91.5606 12.8529 91.4882 13.1738C91.4158 13.4947 91.346 13.813 91.2762 14.1287C91.2401 14.2828 91.2116 14.4111 91.1961 14.5189C91.1806 14.6267 91.1625 14.7474 91.1418 14.8834C91.1418 14.904 91.1392 14.9451 91.1418 15.0015C91.1444 15.058 91.1547 15.1247 91.1728 15.1966C91.1909 15.2685 91.2245 15.3429 91.2711 15.4199C91.3176 15.497 91.3874 15.5663 91.4779 15.6304L91.4314 15.7023L89.6657 14.56L89.6631 14.5677ZM91.2582 10.4143C91.1987 10.4502 91.1108 10.5093 90.9893 10.5914C90.8678 10.6735 90.723 10.7737 90.5498 10.8892C90.3766 11.0047 90.1827 11.1382 89.9656 11.2871C89.751 11.436 89.5158 11.5977 89.265 11.7697L90.7721 12.7451C90.8213 12.5192 90.8704 12.2959 90.9195 12.07C90.966 11.8441 91.0126 11.6259 91.0539 11.418C91.0953 11.2101 91.1366 11.0175 91.1728 10.843C91.209 10.6684 91.2375 10.5272 91.2582 10.4143Z" fill="#16203C"/>
<path d="M96.3095 19.7093C96.3043 19.6477 96.3017 19.6041 96.3017 19.5759C96.3017 19.5476 96.3017 19.5142 96.3017 19.4757C96.3017 19.4372 96.3069 19.3885 96.3147 19.3217C96.3224 19.2575 96.3353 19.1574 96.3483 19.0239C96.3664 18.8622 96.3845 18.7185 96.4026 18.5927C96.4207 18.4669 96.4362 18.3386 96.4517 18.2128C96.4672 18.087 96.4775 17.9561 96.4827 17.82C96.4905 17.684 96.493 17.5274 96.493 17.3528C96.493 17.2065 96.4801 17.0602 96.4568 16.9164C96.4336 16.7701 96.3819 16.6495 96.3043 16.5493C96.2475 16.4749 96.2009 16.4236 96.1647 16.3928C96.1311 16.3645 96.0923 16.326 96.0432 16.2798C95.839 16.516 95.6606 16.7188 95.5107 16.8933C95.3607 17.0679 95.2341 17.2142 95.1333 17.3374C95.035 17.4555 94.9523 17.5582 94.8851 17.6455C94.8153 17.7327 94.7765 17.8174 94.7662 17.9022C94.7558 17.974 94.7687 18.0716 94.8101 18.1922C94.8515 18.3129 94.9445 18.4412 95.0867 18.5747L95.0402 18.6286L93.29 17.1321L93.3366 17.0782C93.44 17.1423 93.546 17.1937 93.6545 17.2373C93.7631 17.2809 93.8665 17.2938 93.9648 17.2758C94.001 17.2707 94.0449 17.2501 94.094 17.2142C94.1431 17.1783 94.1923 17.1372 94.2465 17.0884C94.2983 17.0396 94.3551 16.9857 94.412 16.9267C94.4689 16.8677 94.5232 16.8112 94.5723 16.7521C94.6162 16.7008 94.6757 16.6341 94.7532 16.5493C94.8308 16.4646 94.9135 16.3697 95.0066 16.2695C95.0971 16.1669 95.1901 16.0616 95.2858 15.9538C95.384 15.8409 95.4745 15.7356 95.5598 15.6381L96.4775 14.5779C96.5344 14.5137 96.5913 14.447 96.6481 14.3777C96.705 14.3083 96.7567 14.2416 96.8033 14.1774C96.8498 14.1133 96.8886 14.0516 96.917 13.99C96.9454 13.931 96.9609 13.8797 96.9558 13.8386C96.9506 13.7333 96.9248 13.6435 96.8731 13.5639C96.8214 13.4869 96.7541 13.3971 96.6688 13.2995L96.7154 13.2456C96.7438 13.2713 96.8188 13.3355 96.9403 13.4381C97.0644 13.5434 97.2065 13.664 97.3642 13.7949C97.5219 13.9284 97.6796 14.0593 97.8373 14.1954C97.995 14.3289 98.1217 14.4393 98.2199 14.524C98.4655 14.7319 98.6749 14.927 98.8533 15.1016C99.0291 15.2787 99.1609 15.4763 99.2462 15.692C99.3341 15.9127 99.3651 16.1361 99.3393 16.3645C99.3134 16.593 99.2074 16.8137 99.0187 17.0319C98.9024 17.1654 98.7731 17.2655 98.631 17.3297C98.4888 17.3939 98.3414 17.4324 98.1889 17.4427C98.0364 17.4529 97.8787 17.4427 97.721 17.4067C97.5607 17.3708 97.403 17.322 97.2479 17.2578L97.235 17.2732C97.2686 17.358 97.2893 17.4581 97.2919 17.5684C97.297 17.6788 97.2919 17.7969 97.2815 17.9201C97.2557 18.1383 97.2298 18.3745 97.204 18.6286C97.1781 18.8828 97.1548 19.1087 97.1342 19.3063C97.1057 19.6092 97.1186 19.8608 97.1703 20.0559C97.2221 20.251 97.3229 20.4358 97.4728 20.6078L97.4263 20.6617L96.3043 19.7016L96.3095 19.7093ZM98.7033 15.8614C98.7344 15.6432 98.6982 15.4173 98.5973 15.1837C98.5431 15.0682 98.4784 14.9604 98.3957 14.8603C98.3156 14.7601 98.2225 14.6626 98.1165 14.5727C98.039 14.506 97.9769 14.4572 97.9252 14.4187C97.8735 14.3828 97.8347 14.3546 97.8063 14.3366C97.783 14.3546 97.7623 14.37 97.7468 14.3854C97.7287 14.3982 97.7081 14.4162 97.6848 14.4418C97.6615 14.4675 97.6279 14.4983 97.5866 14.5419C97.5452 14.5856 97.4857 14.6472 97.4108 14.7268C97.297 14.85 97.1703 14.9912 97.0307 15.1478C96.8912 15.3043 96.7567 15.4584 96.6275 15.6073C96.4982 15.7561 96.3845 15.8871 96.2888 15.9974C96.1932 16.1053 96.1337 16.1746 96.1104 16.2028C96.2604 16.3312 96.4051 16.4441 96.5447 16.5416C96.6843 16.6392 96.8317 16.7213 96.9868 16.7829C97.1342 16.8471 97.2763 16.8831 97.4159 16.8933C97.5529 16.9036 97.6822 16.8933 97.8037 16.86C97.9252 16.8266 98.0364 16.7778 98.1398 16.7085C98.2432 16.6392 98.3388 16.557 98.4241 16.4595C98.5818 16.2772 98.6749 16.077 98.7059 15.8588L98.7033 15.8614Z" fill="#16203C"/>
<path d="M103.988 25.316C103.724 25.429 103.468 25.4957 103.222 25.5137C102.974 25.5316 102.739 25.5085 102.511 25.4444C102.284 25.3802 102.069 25.2929 101.865 25.1774C101.661 25.0619 101.47 24.9258 101.291 24.7692C101.113 24.6127 100.95 24.4509 100.805 24.2866L99.0732 22.3126L99.1275 22.2664C99.218 22.346 99.3188 22.4153 99.4274 22.4666C99.5386 22.5205 99.6368 22.5462 99.7273 22.5462C99.7609 22.5462 99.8048 22.5359 99.8565 22.5077C99.9082 22.4795 99.9651 22.4435 100.025 22.405C100.084 22.364 100.149 22.3203 100.213 22.2715C100.278 22.2228 100.34 22.1714 100.397 22.1227C100.449 22.079 100.518 22.02 100.606 21.9455C100.694 21.8711 100.792 21.7915 100.896 21.7042C101.002 21.617 101.108 21.5245 101.216 21.4321C101.327 21.3346 101.433 21.2447 101.532 21.16L102.594 20.241C102.659 20.1846 102.726 20.1281 102.791 20.0716C102.855 20.0151 102.915 19.9587 102.966 19.9048C103.018 19.8509 103.062 19.7995 103.098 19.7482C103.135 19.6994 103.155 19.6506 103.163 19.607C103.181 19.4966 103.168 19.3914 103.129 19.2938C103.088 19.1963 103.031 19.0962 102.961 18.9935L103.016 18.9473C103.147 19.0987 103.341 19.3169 103.592 19.5993C103.843 19.8817 104.145 20.2256 104.499 20.6287C104.6 20.7442 104.701 20.8597 104.802 20.9752C104.905 21.0933 105.006 21.2191 105.099 21.3449C105.192 21.4732 105.278 21.6067 105.358 21.7479C105.438 21.8891 105.503 22.0379 105.552 22.1971C105.619 22.405 105.66 22.6207 105.676 22.8414C105.691 23.0622 105.673 23.2829 105.619 23.5037C105.567 23.7245 105.474 23.9427 105.342 24.1609C105.21 24.3791 105.027 24.5896 104.792 24.7949C104.52 25.0311 104.251 25.2056 103.988 25.3186V25.316ZM104.727 23.5063C104.869 23.2675 104.97 23.0237 105.032 22.767C105.094 22.5103 105.11 22.2561 105.084 21.9994C105.058 21.7427 104.978 21.5066 104.846 21.2909C104.797 21.2062 104.74 21.1164 104.673 21.0214C104.605 20.9264 104.518 20.816 104.406 20.6903C104.368 20.6466 104.326 20.6004 104.28 20.5516C104.233 20.5029 104.187 20.4567 104.138 20.413C104.088 20.3694 104.044 20.3283 104.006 20.2898C103.964 20.2513 103.931 20.2231 103.902 20.2051C103.708 20.3412 103.455 20.5414 103.14 20.8083C102.824 21.0753 102.449 21.3936 102.02 21.7684C101.788 21.9686 101.576 22.1535 101.384 22.3203C101.196 22.4846 101.043 22.6181 100.927 22.7259C100.875 22.7695 100.823 22.8209 100.767 22.8774C100.712 22.9338 100.658 22.9903 100.609 23.0468C100.56 23.1033 100.518 23.1572 100.487 23.2136C100.456 23.2701 100.438 23.3163 100.436 23.3574C100.425 23.4934 100.459 23.6244 100.536 23.7501C100.614 23.8785 100.694 23.9889 100.779 24.0864C100.86 24.1763 100.945 24.2661 101.038 24.3534C101.131 24.4407 101.227 24.5151 101.325 24.5767C101.78 24.8694 102.253 24.9695 102.747 24.8822C103.241 24.7949 103.727 24.5433 104.2 24.1326C104.409 23.9504 104.587 23.7399 104.73 23.5037L104.727 23.5063Z" fill="#16203C"/>
<path d="M107.071 31.3306C106.867 31.3537 106.666 31.3306 106.464 31.2638C106.262 31.1971 106.074 31.0841 105.895 30.9276C105.717 30.771 105.551 30.5784 105.399 30.35C105.27 30.1549 105.169 29.9778 105.102 29.8237C105.032 29.6672 104.985 29.5337 104.959 29.4207C104.934 29.3078 104.918 29.2179 104.915 29.1537C104.915 29.0896 104.908 29.0511 104.9 29.0382C104.892 29.0254 104.851 29.0151 104.776 29.0074C104.701 28.9997 104.631 28.9946 104.566 28.9895L104.53 28.9356L105.717 28.1321L105.756 28.1911C105.67 28.2989 105.595 28.4119 105.531 28.5351C105.466 28.6583 105.409 28.7815 105.363 28.9073C105.316 29.0331 105.283 29.1537 105.264 29.2718C105.244 29.3899 105.241 29.4952 105.249 29.5876C105.257 29.68 105.283 29.7929 105.319 29.929C105.358 30.065 105.409 30.1831 105.479 30.2884C105.675 30.5836 105.916 30.7684 106.2 30.8454C106.485 30.9224 106.766 30.8711 107.043 30.6888C107.154 30.6144 107.242 30.5322 107.302 30.4424C107.361 30.3525 107.402 30.255 107.423 30.1523C107.444 30.0496 107.449 29.9418 107.439 29.8289C107.428 29.7159 107.408 29.6004 107.379 29.4798C107.351 29.3591 107.327 29.2564 107.302 29.1692C107.276 29.0819 107.258 28.9997 107.237 28.9227C107.219 28.8457 107.198 28.7687 107.175 28.6866C107.152 28.6044 107.131 28.5094 107.105 28.3939C107.077 28.263 107.066 28.1269 107.071 27.9858C107.079 27.8446 107.105 27.706 107.152 27.5725C107.198 27.439 107.265 27.3132 107.351 27.1926C107.436 27.0745 107.542 26.9718 107.671 26.8871C107.888 26.7459 108.1 26.6612 108.31 26.6381C108.519 26.615 108.718 26.6355 108.912 26.6997C109.106 26.7639 109.284 26.8665 109.45 27.0077C109.615 27.1489 109.763 27.3132 109.889 27.5057C110.008 27.6854 110.096 27.8497 110.15 27.996C110.205 28.1423 110.241 28.2707 110.259 28.3759C110.277 28.4812 110.285 28.5659 110.282 28.6275C110.282 28.6891 110.282 28.7225 110.282 28.7251C110.29 28.7379 110.331 28.7456 110.404 28.7533C110.476 28.7584 110.548 28.7636 110.618 28.7636L110.662 28.8303L109.548 29.5619L109.504 29.4952C109.605 29.3617 109.695 29.2128 109.776 29.0511C109.856 28.8893 109.915 28.7251 109.949 28.5582C109.985 28.3913 109.993 28.2219 109.972 28.0525C109.951 27.8831 109.889 27.7214 109.786 27.5648C109.703 27.4416 109.608 27.3363 109.499 27.249C109.39 27.1618 109.271 27.1027 109.145 27.0693C109.018 27.036 108.886 27.0308 108.749 27.0539C108.612 27.077 108.475 27.1335 108.338 27.2234C108.126 27.362 107.997 27.5391 107.953 27.7496C107.909 27.9601 107.917 28.1937 107.974 28.4453C107.994 28.5454 108.015 28.6378 108.038 28.7251C108.062 28.8098 108.082 28.8945 108.106 28.9766C108.129 29.0588 108.152 29.1435 108.173 29.2282C108.196 29.3129 108.217 29.4027 108.24 29.4977C108.32 29.834 108.312 30.1395 108.222 30.4142C108.131 30.6888 107.943 30.9199 107.656 31.1047C107.462 31.2305 107.265 31.3049 107.061 31.328L107.071 31.3306Z" fill="#16203C"/>
<path d="M113.079 41.9706C112.723 41.9603 112.384 41.8833 112.069 41.7447C111.753 41.6061 111.474 41.4084 111.228 41.1517C110.985 40.895 110.794 40.5972 110.655 40.2558C110.518 39.9195 110.448 39.5755 110.445 39.2264C110.44 38.8773 110.502 38.5462 110.626 38.2356C110.75 37.925 110.939 37.64 111.187 37.3885C111.435 37.1369 111.74 36.9392 112.102 36.7955C112.485 36.6415 112.86 36.5721 113.222 36.5875C113.583 36.603 113.917 36.6851 114.225 36.8314C114.532 36.9803 114.804 37.1882 115.044 37.4552C115.285 37.7222 115.476 38.0276 115.615 38.3742C115.768 38.7515 115.838 39.1161 115.825 39.4677C115.812 39.8194 115.734 40.1454 115.595 40.4458C115.453 40.7435 115.259 41.0079 115.008 41.2364C114.757 41.4649 114.473 41.6446 114.152 41.7729C113.795 41.9167 113.439 41.9808 113.079 41.9706ZM114.592 40.5202C114.84 40.3405 115.049 40.1352 115.217 39.9067C115.385 39.6782 115.499 39.4292 115.556 39.1648C115.613 38.9004 115.582 38.6258 115.468 38.3434C115.352 38.0559 115.179 37.8351 114.954 37.6785C114.726 37.5245 114.475 37.4244 114.196 37.3782C113.917 37.332 113.625 37.3346 113.315 37.3833C113.004 37.4321 112.705 37.5142 112.415 37.6298C112.113 37.7504 111.833 37.9044 111.58 38.0867C111.327 38.2689 111.122 38.4743 110.965 38.7002C110.807 38.9261 110.706 39.17 110.662 39.4318C110.618 39.6936 110.652 39.9657 110.766 40.2455C110.879 40.5253 111.047 40.7384 111.275 40.8873C111.502 41.0362 111.756 41.1337 112.038 41.1825C112.319 41.2287 112.614 41.2313 112.924 41.1876C113.234 41.144 113.529 41.067 113.811 40.954C114.082 40.8462 114.344 40.6999 114.594 40.5228L114.592 40.5202Z" fill="#16203C"/>
<path d="M113.493 49.2301C113.524 49.1787 113.55 49.1402 113.565 49.1171C113.581 49.094 113.602 49.0658 113.625 49.0375C113.648 49.0067 113.682 48.9682 113.726 48.9195C113.77 48.8707 113.837 48.7962 113.927 48.6961C114.036 48.5755 114.134 48.4702 114.225 48.3778C114.313 48.2854 114.4 48.1904 114.486 48.0955C114.571 48.0005 114.656 47.9004 114.742 47.7925C114.827 47.6847 114.92 47.5615 115.023 47.4178C115.109 47.2997 115.184 47.1739 115.251 47.0404C115.318 46.9095 115.347 46.7786 115.341 46.6528C115.339 46.5604 115.331 46.4911 115.321 46.4449C115.31 46.4038 115.3 46.3499 115.287 46.2831C114.982 46.3576 114.718 46.4218 114.496 46.4757C114.271 46.5296 114.082 46.5783 113.93 46.622C113.783 46.6631 113.653 46.699 113.547 46.7298C113.441 46.7606 113.359 46.8068 113.299 46.871C113.247 46.9223 113.204 47.0096 113.167 47.1328C113.131 47.256 113.131 47.4126 113.167 47.6052L113.098 47.6231L112.547 45.395L112.617 45.377C112.663 45.4874 112.72 45.5926 112.785 45.6902C112.849 45.7877 112.924 45.857 113.015 45.9007C113.048 45.9161 113.095 45.9263 113.154 45.9263C113.214 45.9263 113.278 45.9212 113.351 45.9109C113.423 45.9007 113.498 45.8878 113.578 45.8724C113.658 45.857 113.736 45.8416 113.811 45.8236C113.876 45.8082 113.966 45.7877 114.077 45.762C114.191 45.7364 114.313 45.7081 114.447 45.6799C114.581 45.6491 114.718 45.6183 114.858 45.5824C115.003 45.5464 115.137 45.513 115.264 45.4822L116.631 45.1485C116.717 45.128 116.799 45.1049 116.887 45.0818C116.975 45.0587 117.053 45.033 117.13 45.0073C117.205 44.9817 117.273 44.9534 117.332 44.9201C117.391 44.8893 117.43 44.8559 117.453 44.8199C117.51 44.7327 117.541 44.6428 117.547 44.5504C117.552 44.458 117.547 44.3476 117.536 44.2167L117.606 44.1987C117.616 44.2347 117.64 44.3322 117.676 44.4837C117.715 44.6403 117.761 44.8199 117.813 45.0176C117.865 45.2153 117.916 45.4155 117.965 45.6157C118.014 45.8159 118.056 45.9777 118.087 46.1035C118.164 46.4141 118.221 46.6939 118.263 46.9377C118.304 47.1842 118.294 47.4203 118.237 47.6462C118.18 47.8773 118.074 48.0775 117.921 48.2469C117.769 48.4163 117.552 48.537 117.27 48.6037C117.097 48.6448 116.934 48.6525 116.781 48.6243C116.629 48.596 116.487 48.5421 116.355 48.4625C116.223 48.383 116.104 48.2828 115.995 48.1622C115.887 48.0415 115.786 47.9106 115.698 47.7694L115.677 47.7746C115.654 47.8644 115.613 47.9543 115.551 48.0492C115.489 48.1442 115.419 48.2366 115.339 48.3291C115.191 48.4933 115.031 48.6705 114.861 48.863C114.69 49.0555 114.537 49.2249 114.408 49.3764C114.207 49.6074 114.072 49.8179 114 50.0079C113.927 50.1978 113.901 50.4058 113.925 50.6317L113.855 50.6496L113.501 49.2224L113.493 49.2301ZM117.691 47.4768C117.844 47.3176 117.947 47.1123 118.002 46.8633C118.025 46.7401 118.033 46.6117 118.027 46.4834C118.02 46.355 117.999 46.2241 117.968 46.088C117.945 45.9905 117.921 45.9109 117.903 45.8519C117.883 45.7928 117.867 45.7466 117.854 45.7158C117.826 45.7158 117.8 45.7184 117.777 45.721C117.753 45.721 117.728 45.7235 117.694 45.7312C117.66 45.7364 117.614 45.7466 117.554 45.7569C117.495 45.7697 117.412 45.7851 117.304 45.8082C117.138 45.8442 116.955 45.8853 116.748 45.934C116.541 45.9828 116.342 46.029 116.151 46.0752C115.959 46.1214 115.791 46.1625 115.646 46.1984C115.507 46.2318 115.416 46.2549 115.38 46.2626C115.427 46.4526 115.478 46.6297 115.535 46.7888C115.592 46.9506 115.665 47.0995 115.755 47.2406C115.838 47.3767 115.933 47.4896 116.039 47.5769C116.145 47.6642 116.257 47.7284 116.373 47.772C116.489 47.8156 116.611 47.8387 116.735 47.8413C116.859 47.8465 116.986 47.8311 117.112 47.8002C117.345 47.7438 117.539 47.6334 117.694 47.4742L117.691 47.4768Z" fill="#16203C"/>
<path d="M117.053 57.8039C117.011 57.7115 116.957 57.6473 116.885 57.6114C116.828 57.5832 116.745 57.5729 116.634 57.578C116.523 57.5832 116.414 57.5934 116.303 57.6037L115.253 57.7064C115.222 57.6756 115.165 57.5986 115.085 57.4753C115.005 57.3521 114.922 57.1981 114.832 57.0184C114.741 56.8387 114.664 56.6359 114.594 56.4126C114.524 56.1893 114.478 55.9634 114.454 55.7349C114.411 55.2831 114.429 54.8724 114.509 54.5053C114.592 54.1382 114.734 53.8199 114.935 53.553C115.137 53.286 115.398 53.0704 115.713 52.9086C116.029 52.7469 116.391 52.6442 116.797 52.6032C116.916 52.5903 117.055 52.5903 117.213 52.598C117.371 52.6057 117.539 52.6314 117.717 52.675C117.895 52.7187 118.079 52.7829 118.265 52.8727C118.454 52.9625 118.635 53.0806 118.808 53.2269C119.056 53.4323 119.265 53.6967 119.433 54.015C119.604 54.3333 119.71 54.7312 119.759 55.2087C119.788 55.4936 119.788 55.7477 119.759 55.9711C119.731 56.1944 119.695 56.3844 119.648 56.541C119.604 56.6975 119.56 56.8182 119.516 56.9029C119.475 56.9876 119.454 57.0364 119.454 57.0467C119.454 57.0569 119.485 57.08 119.547 57.116C119.609 57.1545 119.684 57.1981 119.772 57.252L119.78 57.3162L118.213 57.4702L118.206 57.3855C118.415 57.3111 118.611 57.2135 118.792 57.0903C118.973 56.9671 119.121 56.8387 119.234 56.7078C119.382 56.5384 119.496 56.333 119.571 56.084C119.645 55.835 119.671 55.5655 119.643 55.2703C119.612 54.9571 119.514 54.6799 119.346 54.4411C119.18 54.2024 118.968 54.0073 118.715 53.8533C118.461 53.6993 118.175 53.5915 117.857 53.5273C117.539 53.4631 117.208 53.4477 116.869 53.4811C116.494 53.517 116.158 53.5966 115.858 53.7172C115.558 53.8379 115.308 53.9945 115.103 54.187C114.899 54.3795 114.749 54.6054 114.651 54.8647C114.553 55.124 114.522 55.414 114.553 55.7323C114.576 55.9608 114.635 56.1687 114.734 56.3587C114.832 56.5487 114.977 56.6924 115.165 56.7874C115.23 56.8182 115.344 56.8362 115.504 56.8413C115.664 56.8439 115.827 56.8387 115.995 56.8208C116.163 56.8028 116.313 56.7823 116.445 56.7515C116.577 56.7206 116.683 56.6616 116.76 56.5718C116.874 56.4511 116.928 56.2509 116.926 55.9711L116.998 55.9634L117.205 58.0529L117.133 58.0606C117.115 57.981 117.086 57.8938 117.045 57.8039H117.053Z" fill="#16203C"/>
<path d="M114.685 63.9881H114.757C114.757 64.0061 114.76 64.0394 114.767 64.0959C114.775 64.1498 114.791 64.2089 114.811 64.2705C114.832 64.3321 114.866 64.386 114.907 64.4322C114.948 64.4784 115.003 64.5041 115.07 64.5066C115.114 64.5066 115.184 64.4989 115.284 64.4758C115.383 64.4527 115.507 64.4219 115.649 64.3783C115.794 64.3346 115.951 64.2859 116.127 64.232C116.303 64.1755 116.486 64.1164 116.675 64.0523L116.748 62.1475C116.567 62.068 116.396 61.9935 116.233 61.9191C116.07 61.8446 115.905 61.7728 115.739 61.6983C115.483 61.5879 115.302 61.5315 115.196 61.5263C115.134 61.5263 115.083 61.5417 115.039 61.5777C114.997 61.6136 114.961 61.6624 114.933 61.7214C114.904 61.7805 114.881 61.8446 114.868 61.9139C114.853 61.9833 114.84 62.0474 114.827 62.109H114.754L114.814 60.5791H114.894C114.904 60.7075 114.933 60.8153 114.982 60.9051C115.031 60.995 115.065 61.0489 115.085 61.0643C115.116 61.0976 115.194 61.1567 115.318 61.2388C115.439 61.321 115.62 61.4211 115.863 61.5392C116.086 61.647 116.339 61.7702 116.623 61.9062C116.908 62.0423 117.2 62.1809 117.5 62.3221C117.8 62.4659 118.102 62.607 118.407 62.7482C118.712 62.8894 118.997 63.0229 119.263 63.1461L119.423 63.0794C119.459 63.1666 119.501 63.2462 119.552 63.3181C119.602 63.39 119.656 63.4516 119.71 63.5081C119.767 63.562 119.819 63.6082 119.87 63.6467C119.922 63.6852 119.964 63.7134 119.997 63.734V63.7904C119.589 63.9239 119.206 64.0497 118.842 64.1703C118.477 64.291 118.128 64.4039 117.792 64.5143C117.456 64.6247 117.13 64.73 116.815 64.8326C116.499 64.9353 116.189 65.038 115.882 65.1407C115.732 65.1869 115.605 65.2305 115.504 65.2742C115.403 65.3178 115.29 65.364 115.163 65.4153C115.142 65.4231 115.109 65.4436 115.059 65.477C115.01 65.5078 114.959 65.5514 114.907 65.6027C114.855 65.6566 114.806 65.7208 114.765 65.803C114.723 65.8851 114.698 65.9775 114.69 66.0879H114.604L114.685 63.9932V63.9881ZM119.092 63.2154C119.03 63.1846 118.935 63.1384 118.8 63.0794C118.666 63.0203 118.505 62.9459 118.317 62.856C118.128 62.7662 117.913 62.6686 117.673 62.5634C117.433 62.4556 117.174 62.3401 116.895 62.2143L116.825 63.9984C117.045 63.9265 117.265 63.852 117.484 63.775C117.704 63.7006 117.916 63.6261 118.118 63.5543C118.319 63.4824 118.505 63.4182 118.674 63.3592C118.842 63.3001 118.979 63.2514 119.087 63.2129L119.092 63.2154Z" fill="#16203C"/>
<path d="M118.307 74.5511C118.26 74.433 118.172 74.3329 118.046 74.2534C117.981 74.2071 117.854 74.1635 117.663 74.1199C117.472 74.0762 117.27 74.03 117.053 73.9813C116.851 73.935 116.611 73.8837 116.337 73.8272C116.06 73.7708 115.766 73.7143 115.448 73.6552C115.316 73.6321 115.163 73.6039 114.993 73.5731C114.827 73.5423 114.656 73.514 114.483 73.4858C114.31 73.4576 114.137 73.4268 113.966 73.396C113.796 73.3652 113.643 73.3369 113.504 73.3138C113.485 73.3113 113.47 73.301 113.46 73.2882C113.449 73.2753 113.447 73.2548 113.452 73.2317C113.46 73.1932 113.491 73.1547 113.545 73.1187C114.083 72.803 114.574 72.5155 115.024 72.2562C115.471 71.997 115.9 71.7505 116.306 71.5144C116.712 71.2782 117.112 71.0497 117.5 70.8213C117.888 70.5954 118.291 70.3541 118.71 70.0999L115.711 69.5609C115.471 69.5172 115.251 69.4838 115.055 69.4607C114.858 69.4376 114.708 69.4402 114.605 69.471C114.486 69.5018 114.39 69.5686 114.315 69.6712C114.24 69.7714 114.173 69.9177 114.114 70.1051L114.044 70.0922L114.362 68.3569L114.432 68.3698C114.426 68.4853 114.432 68.6034 114.457 68.724C114.481 68.8447 114.54 68.9473 114.633 69.0321C114.721 69.1168 114.861 69.1835 115.049 69.2374C115.241 69.2913 115.471 69.3478 115.737 69.4043C115.939 69.4505 116.179 69.5018 116.453 69.5557C116.73 69.6096 117.027 69.6661 117.342 69.7226C117.479 69.7482 117.593 69.7688 117.684 69.7842C117.774 69.7996 117.862 69.815 117.947 69.8304C118.033 69.8458 118.121 69.8612 118.211 69.8766C118.307 69.8946 118.423 69.9125 118.56 69.9331C118.7 69.9433 118.819 69.9331 118.917 69.8946C119.015 69.8586 119.093 69.8099 119.157 69.7482C119.219 69.6866 119.268 69.6173 119.305 69.5378C119.341 69.4582 119.369 69.3837 119.395 69.3093L119.465 69.3221L119.204 70.7545L114.659 73.3908L117.074 73.8247C117.262 73.858 117.446 73.8888 117.619 73.9145C117.792 73.9402 117.932 73.9453 118.038 73.9248C118.18 73.9017 118.302 73.8375 118.408 73.7323C118.514 73.627 118.601 73.4653 118.676 73.2445L118.746 73.2574L118.426 75.0055L118.356 74.9927C118.364 74.8155 118.345 74.6666 118.296 74.5486L118.307 74.5511Z" fill="#16203C"/>
<path d="M112.531 76.8048L112.601 76.8253C112.583 76.946 112.581 77.0615 112.591 77.1719C112.601 77.2823 112.635 77.385 112.692 77.4774C112.712 77.5082 112.746 77.539 112.793 77.5646C112.839 77.5903 112.896 77.6186 112.963 77.6468C113.03 77.675 113.1 77.7007 113.175 77.7289C113.25 77.7546 113.325 77.7777 113.398 77.8008C113.462 77.8213 113.55 77.8496 113.659 77.8855C113.767 77.9215 113.889 77.9625 114.018 78.0036C114.147 78.0472 114.282 78.0883 114.421 78.132C114.563 78.1756 114.698 78.2167 114.822 78.2552L116.166 78.671C116.249 78.6967 116.332 78.7224 116.414 78.748C116.497 78.7737 116.575 78.7942 116.65 78.8096C116.725 78.825 116.789 78.8353 116.851 78.8379C116.913 78.843 116.965 78.8353 117.004 78.8173C117.102 78.7788 117.182 78.7172 117.247 78.6325C117.311 78.5478 117.368 78.4503 117.42 78.3373L117.49 78.3579L116.846 80.4038L116.776 80.3832C116.792 80.2831 116.8 80.1727 116.797 80.0521C116.797 79.9314 116.748 79.8236 116.657 79.7312C116.593 79.667 116.5 79.6131 116.381 79.5746C116.262 79.5361 116.151 79.4976 116.047 79.4591C115.934 79.4232 115.82 79.3872 115.706 79.3487C115.592 79.3102 115.481 79.2743 115.365 79.2409C115.251 79.205 115.13 79.169 115.005 79.1305C114.887 79.0946 114.755 79.0535 114.613 79.0099L113.054 78.5273C112.919 78.4862 112.79 78.4477 112.666 78.4143C112.539 78.381 112.446 78.3733 112.384 78.3938C112.288 78.4246 112.201 78.4913 112.123 78.5992C112.045 78.7044 111.986 78.8045 111.947 78.8969L111.877 78.8764L112.529 76.8022L112.531 76.8048Z" fill="#16203C"/>
<path d="M109.207 85.484L110.96 81.5256L111.017 81.5205L114.139 86.8471C114.181 86.7546 114.235 86.634 114.302 86.48C114.367 86.3311 114.437 86.1771 114.507 86.0205C114.576 85.8639 114.641 85.7124 114.703 85.5687C114.763 85.4249 114.812 85.312 114.843 85.2273C114.907 85.0578 114.941 84.8936 114.943 84.7344C114.943 84.5752 114.925 84.4238 114.887 84.2749C114.866 84.203 114.835 84.1132 114.791 84.0028C114.747 83.8924 114.698 83.7769 114.641 83.6588C114.584 83.5407 114.522 83.4227 114.46 83.3097C114.398 83.1968 114.336 83.0992 114.279 83.0145L114.339 82.9529L115.533 84.0464C115.502 84.1055 115.448 84.2159 115.375 84.3776C115.3 84.5393 115.215 84.7293 115.114 84.9526C115.013 85.1759 114.905 85.4147 114.791 85.6739C114.675 85.9358 114.558 86.1976 114.445 86.4543C114.331 86.7136 114.222 86.9549 114.121 87.1833C114.018 87.4144 113.933 87.612 113.86 87.7737H113.811L110.693 82.46C110.593 82.6757 110.502 82.8733 110.425 83.0479C110.344 83.2276 110.267 83.4047 110.189 83.5792C110.156 83.6537 110.117 83.7487 110.07 83.8668C110.024 83.9848 109.977 84.1106 109.936 84.2415C109.82 84.6138 109.82 84.9937 109.944 85.3839C110.065 85.774 110.267 86.1617 110.549 86.5441L110.489 86.6058L109.212 85.484H109.207Z" fill="#16203C"/>
<path d="M106.278 90.6977L106.34 90.7362C106.34 90.7362 106.319 90.7799 106.298 90.8338C106.278 90.8851 106.262 90.9442 106.252 91.0058C106.241 91.0699 106.241 91.1316 106.257 91.1932C106.27 91.2548 106.306 91.301 106.363 91.3369C106.399 91.36 106.466 91.3857 106.565 91.4139C106.663 91.4422 106.784 91.473 106.932 91.5038C107.079 91.5346 107.242 91.5705 107.423 91.6065C107.604 91.6424 107.793 91.6783 107.992 91.7143L108.987 90.0842C108.868 89.9276 108.754 89.7787 108.648 89.6376C108.542 89.4938 108.434 89.3526 108.325 89.2089C108.154 88.9881 108.025 88.8521 107.935 88.7982C107.88 88.7648 107.826 88.7545 107.772 88.7673C107.718 88.7776 107.663 88.8033 107.609 88.8418C107.555 88.8803 107.506 88.9239 107.459 88.9778C107.413 89.0317 107.369 89.0805 107.33 89.1293L107.268 89.0908L108.064 87.7842L108.131 87.8253C108.08 87.9382 108.051 88.046 108.051 88.1513C108.051 88.2539 108.054 88.3156 108.064 88.3387C108.074 88.3849 108.116 88.4721 108.183 88.6031C108.25 88.734 108.359 88.9085 108.514 89.1293C108.653 89.3321 108.816 89.5606 109 89.8147C109.181 90.0688 109.369 90.3307 109.561 90.6028C109.755 90.8723 109.949 91.1418 110.148 91.4114C110.347 91.6809 110.53 91.935 110.701 92.1712L110.874 92.1917C110.861 92.2842 110.861 92.374 110.869 92.4613C110.879 92.5486 110.895 92.6281 110.915 92.7026C110.936 92.777 110.962 92.8438 110.988 92.9002C111.014 92.9593 111.037 93.0029 111.055 93.0388L111.024 93.0876C110.605 93.008 110.207 92.9336 109.83 92.8643C109.452 92.795 109.09 92.7257 108.744 92.6589C108.397 92.5922 108.059 92.528 107.736 92.4664C107.41 92.4048 107.087 92.3458 106.769 92.2867C106.614 92.2559 106.482 92.2328 106.373 92.22C106.265 92.2071 106.143 92.1943 106.006 92.1789C105.986 92.1789 105.944 92.1789 105.887 92.1815C105.828 92.184 105.763 92.1969 105.691 92.22C105.618 92.2405 105.546 92.2764 105.471 92.3252C105.396 92.374 105.326 92.4459 105.267 92.5357L105.192 92.4921L106.285 90.7029L106.278 90.6977ZM110.51 92.1455C110.471 92.0891 110.409 92.0018 110.321 91.8863C110.236 91.7707 110.13 91.627 110.008 91.4576C109.887 91.2881 109.747 91.1008 109.589 90.8903C109.432 90.6823 109.264 90.4539 109.08 90.21L108.149 91.7374C108.377 91.7784 108.604 91.8195 108.834 91.8606C109.064 91.9017 109.284 91.9376 109.496 91.9735C109.708 92.0095 109.902 92.0429 110.078 92.0711C110.254 92.1019 110.398 92.125 110.51 92.143V92.1455Z" fill="#16203C"/>
<path d="M103.633 100.693C103.724 100.716 103.825 100.737 103.931 100.755C104.037 100.773 104.14 100.786 104.238 100.793C104.336 100.801 104.43 100.806 104.517 100.809C104.605 100.809 104.675 100.809 104.724 100.799C104.864 100.781 104.98 100.734 105.078 100.663C105.177 100.591 105.285 100.485 105.404 100.347C105.461 100.275 105.513 100.216 105.557 100.165C105.601 100.113 105.645 100.062 105.686 100.011C105.725 99.9618 105.769 99.9079 105.818 99.8488C105.864 99.7924 105.919 99.723 105.986 99.6409C105.893 99.5665 105.766 99.4638 105.606 99.3329C105.446 99.2019 105.277 99.0659 105.102 98.9247C104.926 98.7835 104.75 98.6449 104.579 98.5063C104.411 98.3702 104.267 98.2573 104.153 98.1649L102.904 97.1663C102.796 97.079 102.69 96.9994 102.586 96.925C102.483 96.8506 102.398 96.8121 102.333 96.8095C102.206 96.7992 102.085 96.8326 101.971 96.9122C101.857 96.9917 101.762 97.0636 101.679 97.1355L101.622 97.0893L103.093 95.2744L103.15 95.3181C103.083 95.4233 103.026 95.5311 102.979 95.6415C102.933 95.7519 102.925 95.8879 102.953 96.0522C102.956 96.0856 102.977 96.1241 103.013 96.1677C103.049 96.2114 103.09 96.2576 103.142 96.3064C103.191 96.3551 103.248 96.4065 103.31 96.4578C103.372 96.5117 103.434 96.5605 103.494 96.6093C103.545 96.6503 103.615 96.7068 103.701 96.7787C103.786 96.8506 103.879 96.9276 103.982 97.0123C104.086 97.097 104.194 97.1868 104.305 97.2767C104.417 97.3665 104.525 97.4512 104.626 97.5334L106.487 99.0197C106.552 98.9427 106.606 98.8734 106.655 98.8118C106.699 98.7553 106.743 98.7014 106.787 98.65C106.826 98.6013 106.867 98.5499 106.909 98.4934C106.95 98.437 106.999 98.3754 107.059 98.3035C107.17 98.1597 107.247 98.0288 107.291 97.9133C107.335 97.7978 107.351 97.672 107.34 97.5334C107.34 97.482 107.327 97.4179 107.307 97.3357C107.286 97.2536 107.263 97.1689 107.234 97.0765C107.209 96.984 107.175 96.8891 107.134 96.7941C107.095 96.6991 107.048 96.6118 106.999 96.5348L107.056 96.4989L107.989 97.5205C107.901 97.5899 107.821 97.6592 107.751 97.7208C107.682 97.7824 107.589 97.8825 107.472 98.0185C107.353 98.1572 107.247 98.2804 107.157 98.3908C107.066 98.5011 106.976 98.609 106.891 98.7116C106.805 98.8169 106.72 98.9221 106.632 99.03C106.542 99.1429 106.441 99.2661 106.33 99.4047C106.218 99.5434 106.118 99.6666 106.03 99.7744C105.939 99.8873 105.854 99.9951 105.771 100.1C105.689 100.206 105.603 100.316 105.515 100.429C105.427 100.542 105.324 100.67 105.21 100.811C105.115 100.937 105.042 101.048 104.996 101.14C104.947 101.232 104.903 101.333 104.859 101.44L103.618 100.742L103.641 100.678L103.633 100.693Z" fill="#16203C"/>
<path d="M98.8223 100.17L98.874 100.221C98.8016 100.319 98.7447 100.419 98.7008 100.521C98.6568 100.624 98.6387 100.729 98.6465 100.837C98.6491 100.876 98.6646 100.917 98.6956 100.96C98.724 101.007 98.7602 101.058 98.8068 101.112C98.8533 101.166 98.9024 101.225 98.9567 101.281C99.011 101.338 99.0653 101.394 99.1196 101.448C99.1661 101.497 99.2307 101.561 99.3109 101.643C99.391 101.725 99.4789 101.818 99.572 101.915C99.6676 102.013 99.7659 102.113 99.8667 102.216C99.9727 102.321 100.071 102.418 100.161 102.511L101.151 103.504C101.214 103.566 101.273 103.627 101.335 103.686C101.397 103.748 101.454 103.802 101.513 103.851C101.57 103.9 101.627 103.938 101.679 103.971C101.731 104.005 101.78 104.023 101.824 104.025C101.93 104.036 102.03 104.02 102.126 103.977C102.222 103.933 102.32 103.874 102.418 103.794L102.47 103.846L100.937 105.352L100.885 105.301C100.947 105.222 101.004 105.127 101.061 105.019C101.115 104.911 101.126 104.795 101.089 104.67C101.064 104.582 101.007 104.493 100.919 104.403C100.834 104.313 100.751 104.228 100.678 104.146C100.593 104.061 100.51 103.977 100.43 103.892C100.35 103.807 100.265 103.722 100.182 103.638C100.097 103.553 100.009 103.466 99.9184 103.373C99.8305 103.286 99.7348 103.188 99.6289 103.083L98.481 101.931C98.3828 101.833 98.2872 101.738 98.1915 101.651C98.0959 101.564 98.0157 101.512 97.9511 101.502C97.8529 101.484 97.7443 101.502 97.6254 101.561C97.5064 101.617 97.4082 101.679 97.3281 101.743L97.2764 101.692L98.83 100.165L98.8223 100.17Z" fill="#16203C"/>
<path d="M92.0313 108.066C91.9434 107.722 91.9227 107.381 91.9718 107.039C92.0184 106.7 92.1321 106.377 92.3131 106.074C92.494 105.771 92.7293 105.507 93.0214 105.281C93.3109 105.058 93.6212 104.896 93.9598 104.796C94.2959 104.696 94.632 104.662 94.9706 104.696C95.3093 104.729 95.6324 104.829 95.9452 104.996C96.258 105.163 96.532 105.399 96.7725 105.704C97.0258 106.028 97.1964 106.364 97.2817 106.713C97.367 107.062 97.38 107.404 97.3231 107.738C97.2636 108.071 97.1395 108.39 96.9482 108.692C96.7569 108.995 96.5114 109.262 96.2167 109.491C95.8935 109.74 95.56 109.909 95.2162 109.994C94.8724 110.079 94.5337 110.097 94.208 110.043C93.8797 109.991 93.572 109.876 93.2799 109.701C92.9904 109.527 92.737 109.303 92.5251 109.031C92.2872 108.731 92.1269 108.408 92.0391 108.064L92.0313 108.066ZM93.8538 109.108C94.0968 109.296 94.3528 109.439 94.6216 109.537C94.8905 109.635 95.1619 109.673 95.4334 109.655C95.7048 109.635 95.9633 109.532 96.2037 109.344C96.4519 109.155 96.6173 108.929 96.7052 108.669C96.7931 108.41 96.819 108.143 96.788 107.866C96.7569 107.589 96.6742 107.309 96.5398 107.026C96.408 106.744 96.2451 106.482 96.0512 106.236C95.8496 105.979 95.6247 105.756 95.3791 105.566C95.1309 105.376 94.8775 105.237 94.6164 105.147C94.3553 105.06 94.0917 105.029 93.8254 105.06C93.5591 105.091 93.3058 105.199 93.0679 105.384C92.8301 105.568 92.6698 105.789 92.5871 106.048C92.5044 106.305 92.4811 106.575 92.5121 106.857C92.5432 107.139 92.6233 107.422 92.7526 107.704C92.8792 107.987 93.0369 108.248 93.223 108.485C93.404 108.716 93.616 108.923 93.8564 109.111L93.8538 109.108Z" fill="#16203C"/>
<path d="M86.3669 115.459C86.4289 115.349 86.4496 115.218 86.4315 115.069C86.4264 114.989 86.3772 114.864 86.2919 114.692C86.204 114.52 86.111 114.335 86.0101 114.137C85.9171 113.952 85.8033 113.739 85.6715 113.49C85.5396 113.244 85.3923 112.979 85.2346 112.702C85.1674 112.587 85.0924 112.453 85.0071 112.302C84.9244 112.155 84.8391 112.009 84.7486 111.858C84.6607 111.706 84.5728 111.557 84.4875 111.408C84.4022 111.259 84.3246 111.123 84.2574 111.003C84.2471 110.987 84.2445 110.969 84.2497 110.954C84.2548 110.939 84.2678 110.923 84.2884 110.913C84.322 110.895 84.3712 110.892 84.4384 110.913C85.0278 111.121 85.5655 111.313 86.0515 111.488C86.5401 111.665 87.0054 111.832 87.4475 111.994C87.8895 112.153 88.3238 112.309 88.7478 112.461C89.1718 112.612 89.6164 112.766 90.0818 112.923L88.5824 110.289C88.4609 110.076 88.3471 109.889 88.2385 109.724C88.13 109.56 88.0317 109.447 87.9438 109.388C87.843 109.319 87.7293 109.288 87.6052 109.296C87.4785 109.303 87.326 109.344 87.1424 109.421L87.1063 109.36L88.6522 108.492L88.6884 108.554C88.5953 108.623 88.51 108.705 88.4298 108.8C88.3523 108.895 88.3109 109.006 88.3032 109.131C88.2954 109.252 88.329 109.401 88.4117 109.581C88.4919 109.76 88.5953 109.971 88.722 110.212C88.815 110.394 88.9288 110.61 89.0632 110.856C89.1976 111.103 89.345 111.365 89.5027 111.642C89.5725 111.763 89.6294 111.863 89.6733 111.942C89.7172 112.022 89.7612 112.099 89.8051 112.173C89.8491 112.248 89.8905 112.325 89.937 112.404C89.9835 112.486 90.0456 112.589 90.1179 112.707C90.1981 112.82 90.286 112.902 90.3739 112.954C90.4644 113.005 90.5523 113.033 90.6401 113.043C90.728 113.051 90.8134 113.043 90.8987 113.023C90.984 113 91.0615 112.974 91.1313 112.946L91.1675 113.008L89.893 113.724L84.9451 111.942L86.1549 114.063C86.2506 114.229 86.3436 114.386 86.4341 114.537C86.5246 114.686 86.6125 114.797 86.6952 114.864C86.8038 114.956 86.933 115.01 87.0804 115.023C87.2278 115.035 87.4113 115 87.6284 114.915L87.6646 114.976L86.1058 115.852L86.0696 115.79C86.2118 115.682 86.3152 115.572 86.3772 115.462L86.3669 115.459Z" fill="#16203C"/>
<path d="M96.7983 50.5855C95.6091 47.8644 94.0296 45.5054 92.0546 43.5031C90.0795 41.5034 87.833 39.9324 85.3151 38.7926C82.7971 37.6529 80.2094 37.083 77.5493 37.083C75.052 37.083 72.5548 37.6529 70.0549 38.7926C69.0674 39.2419 68.1213 39.7604 67.2139 40.3457L67.8317 41.9603C68.5711 41.1004 69.4242 40.3559 70.3884 39.7245C72.2213 38.5231 74.6074 37.9224 77.5493 37.9224C80.4912 37.9224 82.8773 38.5231 84.7127 39.7245C86.5456 40.9233 87.9752 42.5353 89.0015 44.553C90.0304 46.5758 90.7258 48.8758 91.0877 51.4557C91.4496 54.0355 91.6306 56.7078 91.6306 59.4673C91.6306 63.0688 91.3902 66.2083 90.9067 68.8882C90.4233 71.5708 89.6168 73.8092 88.4896 75.6112C87.3599 77.4107 85.8993 78.7507 84.1078 79.6312C83.5985 79.8802 83.0608 80.0933 82.4895 80.2704L82.7894 81.0584C83.8209 80.7555 84.8239 80.3602 85.7985 79.8725C88.3578 78.5915 90.5836 76.9102 92.4785 74.8309C94.3709 72.7516 95.8625 70.3694 96.9508 67.6895C98.0366 65.0095 98.5821 62.2679 98.5821 59.4673C98.5821 56.2663 97.9875 53.3065 96.7983 50.5855Z" fill="#16203C"/>
<path d="M75.264 81.1201L58.4166 37.083H51.7236L68.9071 81.9826H78.2834V81.1201H75.264Z" fill="#16203C"/>
<path d="M20.5182 81.1226H25.9677L42.691 37.083H44.1775L61.0249 81.1226H64.0469V81.9826H47.4606V81.1226H54.3371L47.8329 64.0238H33.462L26.9578 81.1226H30.1892V81.9826H20.5156V81.1226H20.5182ZM40.6488 45.2641L33.8343 63.1613H47.4606L40.6462 45.2641H40.6488Z" fill="#16203C"/>
</g>
<defs>
<clipPath id="clip0_3894_17372">
<rect width="120" height="120" fill="white"/>
</clipPath>
</defs>
</svg>
