<svg width="304" height="187" viewBox="0 0 304 187" fill="none" xmlns="http://www.w3.org/2000/svg">
<path d="M146.65 82.18H142C141.22 81.15 140.97 79.34 140.97 78.41C139.73 81.3 137.66 82.7 134.56 82.7C130.68 82.7 127.74 79.96 127.74 74.22C127.74 62.54 140.97 63.47 140.97 56.96C140.97 54.01 139.78 52.72 137.51 52.72C135.03 52.72 133.74 54.27 133.74 58.04V59.33H128.57V58.55C128.57 52.3 130.69 48.06 137.51 48.06C144.33 48.06 146.14 52.3 146.14 58.04V77.27C146.14 79.08 146.14 80.16 146.66 82.18H146.65ZM140.96 63.57C139.62 66.46 132.9 67.86 132.9 73.49C132.9 76.13 133.99 78.04 136.62 78.04C139.25 78.04 140.7 75.25 140.96 74.27V63.57Z" fill="white"/>
<path d="M166.65 73.86C166.65 78.2 165.1 82.7 158.07 82.7C151.04 82.7 148.77 79.24 148.77 70.92H153.94C153.94 76.5 155.08 78.05 158.07 78.05C160.55 78.05 161.48 76.5 161.48 73.86C161.48 70.91 160.03 69.52 155.48 66.06C152.53 63.84 149.02 61.72 149.02 56.24C149.02 52.31 151.04 48.07 157.55 48.07C164.06 48.07 166.39 52.15 166.39 59.08H161.22C161.22 53.76 159.82 52.72 157.55 52.72C155.59 52.72 154.19 54.01 154.19 56.23C154.19 59.28 156.15 60.16 159.93 63.1C163.75 66.1 166.65 68.53 166.65 73.85V73.86Z" fill="white"/>
<path d="M168.77 42.89C168.77 41.44 170.06 40.31 171.61 40.31C173.16 40.31 174.45 41.45 174.45 42.89C174.45 44.33 173.16 45.47 171.61 45.47C170.06 45.47 168.77 44.28 168.77 42.89ZM174.2 48.58V82.18H169.03V48.58H174.2Z" fill="white"/>
<path d="M195.49 82.18H190.84C190.06 81.15 189.81 79.34 189.81 78.41C188.57 81.3 186.5 82.7 183.4 82.7C179.52 82.7 176.58 79.96 176.58 74.22C176.58 62.54 189.81 63.47 189.81 56.96C189.81 54.01 188.62 52.72 186.35 52.72C183.87 52.72 182.58 54.27 182.58 58.04V59.33H177.41V58.55C177.41 52.3 179.53 48.06 186.35 48.06C193.17 48.06 194.98 52.3 194.98 58.04V77.27C194.98 79.08 194.98 80.16 195.5 82.18H195.49ZM189.81 63.57C188.47 66.46 181.75 67.86 181.75 73.49C181.75 76.13 182.84 78.04 185.47 78.04C188.1 78.04 189.55 75.25 189.81 74.27V63.57Z" fill="white"/>
<path d="M145.62 110.24V133.86H140.45V109.46C140.45 106.2 139.52 104.39 136.94 104.39C134.1 104.39 132.91 106.72 132.91 109.71V133.85H127.74V92.5H132.91V104.03C133.74 102.17 135.55 99.74 139.22 99.74C143.98 99.74 145.63 102.94 145.63 110.23L145.62 110.24Z" fill="white"/>
<path d="M148.2 111.79C148.2 103.47 150.89 99.75 157.14 99.75C163.39 99.75 166.08 103.47 166.08 111.79V122.33C166.08 130.65 163.39 134.37 157.14 134.37C150.89 134.37 148.2 130.65 148.2 122.33V111.79ZM157.14 129.73C159.62 129.73 160.91 128.44 160.91 123.11V111.02C160.91 105.7 159.57 104.4 157.14 104.4C154.71 104.4 153.37 105.69 153.37 111.02V123.11C153.37 128.43 154.66 129.73 157.14 129.73Z" fill="white"/>
<path d="M186.29 125.54C186.29 129.88 184.74 134.38 177.71 134.38C170.68 134.38 168.41 130.92 168.41 122.6H173.58C173.58 128.18 174.72 129.73 177.71 129.73C180.19 129.73 181.12 128.18 181.12 125.54C181.12 122.59 179.67 121.2 175.12 117.74C172.17 115.52 168.66 113.4 168.66 107.92C168.66 103.99 170.68 99.75 177.19 99.75C183.7 99.75 186.03 103.83 186.03 110.76H180.86C180.86 105.44 179.46 104.4 177.19 104.4C175.23 104.4 173.83 105.69 173.83 107.91C173.83 110.96 175.79 111.84 179.57 114.78C183.4 117.78 186.29 120.21 186.29 125.53V125.54Z" fill="white"/>
<path d="M206.76 110.24V123.89C206.76 131.18 205.11 134.38 200.35 134.38C196.68 134.38 194.87 131.95 194.04 130.09V144.2H188.87V100.27H194.04V104.04C194.87 102.18 196.68 99.75 200.35 99.75C205.11 99.75 206.76 102.95 206.76 110.24ZM201.59 109.47C201.59 106.21 200.66 104.4 198.08 104.4C195.24 104.4 194.05 106.73 194.05 109.72V124.4C194.05 127.4 195.24 129.72 198.08 129.72C200.66 129.72 201.59 127.91 201.59 124.65V109.45V109.47Z" fill="white"/>
<path d="M209.08 94.58C209.08 93.13 210.37 92 211.92 92C213.47 92 214.76 93.14 214.76 94.58C214.76 96.02 213.47 97.16 211.92 97.16C210.37 97.16 209.08 95.97 209.08 94.58ZM214.51 100.27V133.87H209.34V100.27H214.51Z" fill="white"/>
<path d="M225.16 104.92V122.6C225.16 127.15 225.47 129.22 228.57 129.22H230.84V133.87H227.64C220.71 133.87 219.99 130.15 219.99 122.6V104.92H216.37V100.27C219.42 99.39 220.82 95.98 220.76 92.52H225.93C225.93 96.29 224.28 99.6 222.05 100.27H230.84V104.92H225.15H225.16Z" fill="white"/>
<path d="M251.62 133.86H246.97C246.19 132.83 245.94 131.02 245.94 130.09C244.7 132.98 242.63 134.38 239.53 134.38C235.65 134.38 232.71 131.64 232.71 125.9C232.71 114.22 245.94 115.15 245.94 108.64C245.94 105.69 244.75 104.4 242.48 104.4C240 104.4 238.71 105.95 238.71 109.72V111.01H233.54V110.23C233.54 103.98 235.66 99.74 242.48 99.74C249.3 99.74 251.11 103.98 251.11 109.72V128.95C251.11 130.76 251.11 131.84 251.63 133.86H251.62ZM245.94 115.25C244.6 118.14 237.88 119.54 237.88 125.17C237.88 127.81 238.97 129.72 241.6 129.72C244.23 129.72 245.68 126.93 245.94 125.95V115.25Z" fill="white"/>
<path d="M259.37 92.51V133.86H254.2V92.51H259.37Z" fill="white"/>
<path d="M261.7 94.58C261.7 93.13 262.99 92 264.54 92C266.09 92 267.38 93.14 267.38 94.58C267.38 96.02 266.09 97.16 264.54 97.16C262.99 97.16 261.7 95.97 261.7 94.58ZM267.13 100.27V133.87H261.96V100.27H267.13Z" fill="white"/>
<path d="M277.72 104.92V122.6C277.72 127.15 278.03 129.22 281.13 129.22H283.4V133.87H280.2C273.27 133.87 272.55 130.15 272.55 122.6V104.92H268.93V100.27C271.98 99.39 273.38 95.98 273.32 92.52H278.49C278.49 96.29 276.84 99.6 274.61 100.27H283.4V104.92H277.71H277.72Z" fill="white"/>
<path d="M303.41 100.27V132.94C303.41 140.49 302.01 144.21 294.21 144.21H286.82V139.56H293.44C297.21 139.56 298.25 137.49 298.25 132.94V130.1C297.42 131.96 295.61 134.39 291.94 134.39C287.18 134.39 285.53 131.19 285.53 123.9V100.28H290.7V124.68C290.7 127.94 291.63 129.75 294.21 129.75C297.05 129.75 298.24 127.42 298.24 124.43V100.29H303.41V100.27Z" fill="white"/>
<path d="M146.65 185.55H142C141.22 184.52 140.97 182.71 140.97 181.78C139.73 184.67 137.66 186.07 134.56 186.07C130.68 186.07 127.74 183.33 127.74 177.59C127.74 165.91 140.97 166.84 140.97 160.33C140.97 157.38 139.78 156.09 137.51 156.09C135.03 156.09 133.74 157.64 133.74 161.41V162.7H128.57V161.92C128.57 155.67 130.69 151.43 137.51 151.43C144.33 151.43 146.14 155.67 146.14 161.41V180.64C146.14 182.45 146.14 183.53 146.66 185.55H146.65ZM140.96 166.94C139.62 169.83 132.9 171.23 132.9 176.86C132.9 179.5 133.99 181.41 136.62 181.41C139.25 181.41 140.7 178.62 140.96 177.64V166.94Z" fill="white"/>
<path d="M185.57 151.95L173.99 185.55H165.98V158.36L157.24 185.55H149.23V151.95H154.4V179.76L163.08 151.95H171.14V179.76L179.82 151.95H185.56H185.57Z" fill="white"/>
<path d="M203.5 185.55H198.85C198.07 184.52 197.82 182.71 197.82 181.78C196.58 184.67 194.51 186.07 191.41 186.07C187.53 186.07 184.59 183.33 184.59 177.59C184.59 165.91 197.82 166.84 197.82 160.33C197.82 157.38 196.63 156.09 194.36 156.09C191.88 156.09 190.59 157.64 190.59 161.41V162.7H185.42V161.92C185.42 155.67 187.54 151.43 194.36 151.43C201.18 151.43 202.99 155.67 202.99 161.41V180.64C202.99 182.45 202.99 183.53 203.51 185.55H203.5ZM197.82 166.94C196.48 169.83 189.76 171.23 189.76 176.86C189.76 179.5 190.85 181.41 193.48 181.41C196.11 181.41 197.56 178.62 197.82 177.64V166.94Z" fill="white"/>
<path d="M223.45 161.67V163.22H218.28V160.89C218.28 157.94 217.87 156.08 215.49 156.08C212.91 156.08 211.25 159.34 211.25 162.28V185.54H206.08V151.94H211.25V156.07C212.18 154 214.09 151.42 217.87 151.42C222.52 151.42 223.45 154.88 223.45 161.65V161.67Z" fill="white"/>
<path d="M243.71 185.55H239.06C238.28 184.77 238.03 182.71 238.03 181.78C237.2 183.64 235.39 186.07 231.72 186.07C226.96 186.07 225.31 182.87 225.31 175.58V161.93C225.31 154.64 226.96 151.44 231.72 151.44C235.39 151.44 237.2 153.87 238.03 155.73V144.2H243.2V180.59C243.2 182.76 243.2 183.9 243.72 185.55H243.71ZM238.03 161.41C238.03 158.41 236.84 156.09 234 156.09C231.42 156.09 230.49 157.9 230.49 161.16V176.36C230.49 179.62 231.42 181.43 234 181.43C236.84 181.43 238.03 179.1 238.03 176.11V161.43V161.41Z" fill="white"/>
<path d="M263.46 177.23C263.46 181.57 261.91 186.07 254.88 186.07C247.85 186.07 245.58 182.61 245.58 174.29H250.75C250.75 179.87 251.89 181.42 254.88 181.42C257.36 181.42 258.29 179.87 258.29 177.23C258.29 174.28 256.84 172.89 252.29 169.43C249.34 167.21 245.83 165.09 245.83 159.61C245.83 155.68 247.85 151.44 254.36 151.44C260.87 151.44 263.2 155.52 263.2 162.45H258.03C258.03 157.13 256.63 156.09 254.36 156.09C252.4 156.09 251 157.38 251 159.6C251 162.65 252.96 163.53 256.74 166.47C260.57 169.47 263.46 171.9 263.46 177.22V177.23Z" fill="white"/>
<path fill-rule="evenodd" clip-rule="evenodd" d="M90.83 25.63V114.48H50.33V50.4H26.64V47.53H25.53V51.81H25.64V186.06H50.33V139.18H90.83V186.06H115.52V25.63H90.83Z" fill="white"/>
<path d="M50.38 44.34H49.27V48.93H50.38V44.34Z" fill="white"/>
<path d="M50.38 28.32H49.27V32.91H50.38V28.32Z" fill="white"/>
<path d="M50.38 25.46H46.9V26.57H50.38V25.46Z" fill="white"/>
<path d="M43.49 25.46H38.9V26.57H43.49V25.46Z" fill="white"/>
<path d="M50.38 36.33H49.27V40.92H50.38V36.33Z" fill="white"/>
<path d="M26.64 31.51H25.53V36.1H26.64V31.51Z" fill="white"/>
<path d="M26.64 39.52H25.53V44.11H26.64V39.52Z" fill="white"/>
<path fill-rule="evenodd" clip-rule="evenodd" d="M26.64 26.57H27.48V25.46H25.53V28.1H26.64V26.57Z" fill="white"/>
<path d="M35.48 25.46H30.89V26.57H35.48V25.46Z" fill="white"/>
<path d="M24.86 0H0V24.86H24.86V0Z" fill="white"/>
</svg>
