<svg width="818" height="502" viewBox="0 0 818 502" fill="none" xmlns="http://www.w3.org/2000/svg">
<path fill-rule="evenodd" clip-rule="evenodd" d="M66.94 0H0V66.94H66.94V0ZM104.76 68.56H117.14V71.56H104.76V68.56ZM135.56 308.33H244.62V69.02H311.12V501.11H244.62V374.83H135.56V501.11H69.06V139.54H68.76V128H71.76V135.74H135.56V308.33ZM71.76 84.87H68.76V97.24H71.76V84.87ZM83.2 68.56H95.58V71.56H83.2V68.56ZM71.76 71.56H74.01V68.56H68.76V75.68H71.76V71.56ZM68.76 106.43H71.76V118.81H68.76V106.43ZM135.7 76.28H132.7V88.66H135.7V76.28ZM132.7 97.84H135.7V110.22H132.7V97.84ZM135.7 119.41H132.7V131.78H135.7V119.41ZM126.32 68.56H135.7V71.56H126.32V68.56ZM469.85 115.52C469.85 119.28 466.37 122.48 462.19 122.48C458.01 122.48 454.53 119.42 454.53 115.52C454.53 111.62 458.01 108.56 462.19 108.56C466.37 108.56 469.85 111.76 469.85 115.52ZM393.57 156.31C393.57 140.86 388.28 129.44 370.32 129.44C352.36 129.44 346.24 140.86 346.24 157.7V159.79H360.16V156.31C360.16 146.15 363.64 141.97 370.32 141.97C376.44 141.97 379.65 145.45 379.65 153.39C379.65 160.887 373.138 164.721 365.681 169.112C355.693 174.993 344.01 181.872 344.01 199.89C344.01 215.34 351.95 222.72 362.39 222.72C370.74 222.72 376.31 218.96 379.65 211.17C379.65 213.68 380.35 218.55 382.43 221.33H394.96C393.57 215.9 393.57 212.98 393.57 208.11V208.11V156.33V156.31ZM379.65 200.02C378.95 202.67 375.33 210.18 367.96 210.18C360.59 210.18 357.94 205.03 357.94 197.93C357.94 188.383 365.109 183.355 371.326 178.995C374.987 176.427 378.318 174.091 379.66 171.2V200.02H379.65ZM425.72 210.18C417.65 210.18 414.58 206 414.58 190.97H400.66C400.66 213.38 406.78 222.71 425.72 222.71C444.66 222.71 448.83 210.6 448.83 198.91C448.83 184.57 441.03 178.03 430.73 169.95C429.076 168.659 427.55 167.515 426.156 166.469L426.155 166.469C418.987 161.093 415.28 158.313 415.28 151.44C415.28 145.45 419.04 141.97 424.33 141.97C430.45 141.97 434.21 144.75 434.21 159.09H448.13C448.13 140.44 441.87 129.44 424.33 129.44C406.79 129.44 401.36 140.86 401.36 151.43C401.36 164.984 409.345 170.898 416.791 176.412L416.793 176.414L416.809 176.425C417.465 176.912 418.118 177.395 418.76 177.88C431.01 187.21 434.91 190.97 434.91 198.9C434.91 206 432.4 210.18 425.72 210.18ZM455.23 130.84V221.32H469.15V130.84H455.23ZM493.93 222.71C483.492 222.71 475.553 215.333 475.55 199.89C475.554 181.879 487.235 175.002 497.221 169.122C504.678 164.731 511.19 160.897 511.19 153.4C511.19 145.46 507.98 141.98 501.86 141.98C495.18 141.98 491.7 146.16 491.7 156.32V159.8H477.78V157.71C477.78 140.87 483.9 129.45 501.86 129.45C519.82 129.45 525.11 140.87 525.11 156.32V208.1C525.11 212.97 525.11 215.89 526.5 221.32H513.97C511.89 218.54 511.19 213.67 511.19 211.16C507.85 218.95 502.28 222.71 493.93 222.71ZM511.19 171.221V171.2H511.2L511.19 171.221ZM511.19 171.221V200.02C510.49 202.67 506.87 210.18 499.5 210.18C492.13 210.18 489.48 205.03 489.48 197.93C489.48 188.383 496.649 183.355 502.866 178.995C506.518 176.433 509.842 174.103 511.19 171.221ZM357.93 295.51C357.93 287.44 361.13 281.17 368.79 281.17C375.75 281.17 378.26 286.04 378.26 294.81V360.52H392.18V296.9C392.18 277.27 387.73 268.64 374.92 268.64C365.04 268.64 360.16 275.18 357.94 280.19V249.15H344.02V360.52H357.94V295.51H357.93ZM447.3 329.48C447.3 351.89 440.06 361.91 423.22 361.91C406.38 361.91 399.14 351.89 399.14 329.48V301.08C399.14 278.67 406.38 268.65 423.22 268.65C440.06 268.65 447.3 278.67 447.3 301.08V329.48ZM423.22 281.17C416.54 281.17 413.06 284.65 413.06 298.99V331.56C413.06 345.9 416.54 349.38 423.22 349.38C429.9 349.38 433.38 345.9 433.38 331.56V298.99C433.38 284.65 429.9 281.17 423.22 281.17ZM478.62 349.38C470.55 349.38 467.48 345.2 467.48 330.17H453.56C453.56 352.58 459.68 361.91 478.62 361.91C497.56 361.91 501.73 349.8 501.73 338.11C501.73 323.77 493.94 317.23 483.63 309.15C481.975 307.859 480.45 306.715 479.055 305.669C471.887 300.293 468.18 297.513 468.18 290.64C468.18 284.65 471.94 281.17 477.23 281.17C483.35 281.17 487.11 283.95 487.11 298.29H501.03C501.03 279.64 494.77 268.64 477.23 268.64C459.69 268.64 454.26 280.06 454.26 290.63C454.26 304.184 462.245 310.098 469.691 315.612L469.693 315.614C470.355 316.104 471.013 316.591 471.66 317.08C483.91 326.41 487.81 330.17 487.81 338.1C487.81 345.2 485.31 349.38 478.62 349.38ZM539.59 268.64C552.39 268.64 556.85 277.27 556.85 296.9V333.64C556.85 353.27 552.4 361.9 539.59 361.9C529.71 361.9 524.84 355.36 522.61 350.35V388.35H508.69V270.03H522.61V280.19C524.83 275.18 529.71 268.64 539.59 268.64ZM533.46 349.38C540.42 349.38 542.93 344.51 542.93 335.74V294.81C542.93 286.04 540.42 281.17 533.46 281.17C525.8 281.17 522.6 287.44 522.6 295.51V335.04C522.6 343.12 525.8 349.38 533.46 349.38ZM577.73 360.52V270.04H563.81V360.52H577.73ZM578.43 254.72C578.43 258.48 574.95 261.68 570.77 261.68C566.59 261.68 563.11 258.62 563.11 254.72C563.11 250.82 566.59 247.76 570.77 247.76C574.95 247.76 578.43 250.96 578.43 254.72ZM592.48 330.17C592.48 350.49 594.43 360.52 613.08 360.52H621.71V347.99H615.59C607.24 347.99 606.4 342.42 606.4 330.17V282.56H621.71V270.03H598.04C604.03 268.22 608.48 259.31 608.48 249.15H594.56C594.7 258.48 590.94 267.66 582.73 270.03V282.56H592.47V330.17H592.48ZM677.67 360.52H665.14V360.54C663.06 357.76 662.36 352.89 662.36 350.38C659.02 358.17 653.45 361.93 645.1 361.93C634.65 361.93 626.72 354.55 626.72 339.1C626.72 321.082 638.403 314.203 648.391 308.322C655.848 303.931 662.36 300.097 662.36 292.6C662.36 284.66 659.15 281.18 653.03 281.18C646.35 281.18 642.87 285.36 642.87 295.52V299H628.95V296.91C628.95 280.07 635.07 268.65 653.03 268.65C670.99 268.65 676.28 280.07 676.28 295.52V347.3V347.301C676.28 352.17 676.28 355.09 677.67 360.52ZM640.64 337.13C640.64 344.23 643.56 349.38 650.66 349.38H650.67C658.04 349.38 661.66 341.87 662.36 339.22V310.4C661.018 313.291 657.687 315.627 654.026 318.195C647.809 322.555 640.64 327.583 640.64 337.13ZM698.55 249.15H684.63V360.52H698.55V249.15ZM719.43 270.04V360.52H705.51V270.04H719.43ZM712.47 247.76C708.29 247.76 704.81 250.82 704.81 254.72C704.81 258.62 708.29 261.68 712.47 261.68C716.65 261.68 720.13 258.48 720.13 254.72C720.13 250.96 716.65 247.76 712.47 247.76ZM736.13 249.15H750.04C750.04 259.31 745.59 268.22 739.6 270.03H763.27V282.56H747.96V330.17C747.96 342.42 748.8 347.99 757.15 347.99H763.28V360.52H754.65C736 360.52 734.05 350.49 734.05 330.17V282.56H724.3V270.03C732.51 267.66 736.27 258.48 736.13 249.15ZM803.22 270.04V270.05H803.21L803.22 270.04ZM803.22 270.05V335.05C803.22 343.12 800.02 349.39 792.36 349.39C785.4 349.39 782.89 344.52 782.89 335.75V270.04H768.97V333.66C768.97 353.29 773.42 361.92 786.23 361.92C796.11 361.92 800.99 355.38 803.21 350.37V358.03C803.21 370.28 800.43 375.85 790.26 375.85H772.44V388.38H792.35C813.37 388.38 817.13 378.36 817.13 358.03V270.05H803.22ZM370.32 407.84C388.28 407.84 393.57 419.26 393.57 434.71V434.73V486.51V486.51C393.57 491.38 393.57 494.3 394.96 499.73H382.43C380.35 496.95 379.65 492.08 379.65 489.57C376.31 497.36 370.74 501.12 362.39 501.12C351.95 501.12 344.01 493.74 344.01 478.29C344.01 460.272 355.693 453.393 365.681 447.512C373.138 443.121 379.65 439.287 379.65 431.79C379.65 423.85 376.44 420.37 370.32 420.37C363.64 420.37 360.16 424.55 360.16 434.71V438.19H346.24V436.1C346.24 419.26 352.36 407.84 370.32 407.84ZM367.96 488.58C375.33 488.58 378.95 481.07 379.65 478.42H379.66V449.6C378.318 452.491 374.987 454.827 371.326 457.395C365.109 461.755 357.94 466.783 357.94 476.33C357.94 483.43 360.59 488.58 367.96 488.58ZM484.33 409.24L460.94 484.13V409.24H439.22L415.84 484.13V409.24H401.92V499.72H423.49L447.02 426.5V499.72H468.6L499.78 409.24H484.33ZM523.44 407.84C541.4 407.84 546.69 419.26 546.69 434.71V434.73V486.51C546.69 491.38 546.69 494.3 548.08 499.73H535.55C533.47 496.95 532.77 492.08 532.77 489.57C529.43 497.36 523.86 501.12 515.51 501.12C505.06 501.12 497.13 493.74 497.13 478.29C497.13 460.272 508.813 453.393 518.802 447.512C526.258 443.121 532.77 439.287 532.77 431.79C532.77 423.85 529.56 420.37 523.44 420.37C516.76 420.37 513.28 424.55 513.28 434.71V438.19H499.36V436.1C499.36 419.26 505.48 407.84 523.44 407.84ZM521.08 488.58C528.45 488.58 532.07 481.07 532.77 478.42H532.78V449.6C531.438 452.491 528.107 454.827 524.446 457.395C518.229 461.755 511.06 466.783 511.06 476.33C511.06 483.43 513.71 488.58 521.08 488.58ZM586.77 407.84C576.61 407.84 571.46 414.8 568.95 420.37V409.23H555.03V499.71H568.95V437.07C568.95 429.14 573.4 420.36 580.36 420.36C586.76 420.36 587.88 425.37 587.88 433.31V439.57H601.8V435.39C601.8 417.15 599.29 407.83 586.77 407.83V407.84ZM641.06 388.35H654.98V388.36V486.36C654.98 492.2 654.98 495.26 656.37 499.72H643.84C641.76 497.63 641.06 492.07 641.06 489.56C638.84 494.57 633.96 501.11 624.08 501.11C611.28 501.11 606.82 492.48 606.82 472.85V436.1C606.82 416.47 611.27 407.84 624.08 407.84C633.96 407.84 638.83 414.38 641.06 419.39V388.35ZM630.2 488.58C637.86 488.58 641.06 482.31 641.06 474.24V434.71C641.06 426.63 637.86 420.37 630.2 420.37C623.24 420.37 620.73 425.24 620.73 434.01V474.94C620.73 483.71 623.24 488.58 630.2 488.58ZM686.878 444.87L686.875 444.869C679.707 439.493 676 436.713 676 429.84C676 423.85 679.76 420.37 685.05 420.37C691.17 420.37 694.93 423.15 694.93 437.49H708.85C708.85 418.84 702.59 407.84 685.05 407.84C667.51 407.84 662.08 419.26 662.08 429.83C662.08 443.384 670.065 449.298 677.511 454.812L677.513 454.814C678.175 455.304 678.833 455.791 679.48 456.28C691.73 465.61 695.63 469.37 695.63 477.3C695.63 484.4 693.12 488.58 686.44 488.58C678.37 488.58 675.3 484.4 675.3 469.37H661.38C661.38 491.78 667.5 501.11 686.44 501.11C705.38 501.11 709.55 489 709.55 477.31C709.55 462.97 701.75 456.43 691.45 448.35C689.796 447.059 688.271 445.916 686.878 444.87Z" fill="#C48F7F"/>
</svg>
