<svg width="312" height="502" viewBox="0 0 312 502" fill="none" xmlns="http://www.w3.org/2000/svg">
<g clip-path="url(#clip0_15_554)">
<path fill-rule="evenodd" clip-rule="evenodd" d="M0 0.109985H66.94V67.05H0V0.109985ZM117.14 68.67H104.76V71.67H117.14V68.67ZM244.62 308.44H135.56V135.85H71.76V128.11H68.76V139.65H69.06V501.22H135.56V374.94H244.62V501.22H311.12V69.13H244.62V308.44ZM68.76 84.98H71.76V97.35H68.76V84.98ZM95.58 68.67H83.2V71.67H95.58V68.67ZM74.01 71.67H71.76V75.79H68.76V68.67H74.01V71.67ZM71.76 106.54H68.76V118.92H71.76V106.54ZM132.7 76.39H135.7V88.77H132.7V76.39ZM135.7 97.95H132.7V110.33H135.7V97.95ZM132.7 119.52H135.7V131.89H132.7V119.52ZM135.7 68.67H126.32V71.67H135.7V68.67Z" fill="#C48F7F"/>
</g>
<defs>
<clipPath id="clip0_15_554">
<rect width="312" height="502" fill="white"/>
</clipPath>
</defs>
</svg>
